<?xml version="1.0" encoding="UTF-8" standalone="no"?>
<svg
   xmlns:dc="http://purl.org/dc/elements/1.1/"
   xmlns:cc="http://creativecommons.org/ns#"
   xmlns:rdf="http://www.w3.org/1999/02/22-rdf-syntax-ns#"
   xmlns:svg="http://www.w3.org/2000/svg"
   xmlns="http://www.w3.org/2000/svg"
   viewBox="0 0 666.66669 666.66669"
   height="666.66669"
   width="666.66669"
   xml:space="preserve"
   id="svg2"
   version="1.1"><metadata
     id="metadata8"><rdf:RDF><cc:Work
         rdf:about=""><dc:format>image/svg+xml</dc:format><dc:type
           rdf:resource="http://purl.org/dc/dcmitype/StillImage" /></cc:Work></rdf:RDF></metadata><defs
     id="defs6" /><g
     transform="matrix(1.3333333,0,0,-1.3333333,0,666.66667)"
     id="g10"><g
       transform="scale(0.1)"
       id="g12"><path
         id="path14"
         style="fill:#2d2a2b;fill-opacity:1;fill-rule:nonzero;stroke:none"
         d="M 0,0 H 5000 V 5000 H 0 Z" /><path
         id="path16"
         style="fill:#e6ce62;fill-opacity:1;fill-rule:nonzero;stroke:none"
         d="m 938.016,2277.69 17.914,-34.48 -17.914,-27.14 -17.914,27.14 z m 96.874,10.04 23.75,-45.71 -23.75,-35.99 -23.75,35.99 z m 103.89,15.17 28.5,-54.85 -28.5,-43.19 -28.51,43.19 z m 103.88,-15.17 23.75,-45.71 -23.75,-35.99 -23.75,35.99 z m 96.88,-10.04 17.91,-34.48 -17.91,-27.14 -17.92,27.14 z M 717.832,2170.05 h 841.888 l 135.02,485.97 c 0,0 -188.63,-73.46 -152.89,-127.98 35.74,-54.52 61.55,-17.2 61.55,-17.2 -1.98,-47.9 -57.58,-220.16 -152.67,-218.07 -95.09,2.08 -55.82,183.95 -55.82,183.95 7.95,-22.45 59.57,-29.18 55.6,17.06 -3.97,46.23 -71.48,128.49 -71.48,128.49 0,0 -117.15,-101.26 -89.35,-135.07 27.8,-33.8 51.63,-4.42 51.63,-4.42 0,0 3.97,-138.49 -85.38,-161.36 -89.36,-22.86 -89.36,206.62 -89.36,206.62 45.67,42.77 9.93,82.32 9.93,82.32 0,0 79.43,-37.73 79.43,34.09 0,71.83 -117.15,154.54 -117.15,154.54 0,0 -117.15,-82.71 -117.15,-154.54 0,-71.82 79.42,-34.09 79.42,-34.09 0,0 -35.74,-39.55 9.93,-82.32 0,0 0,-229.48 -89.35,-206.62 -89.353,22.87 -85.384,161.36 -85.384,161.36 0,0 23.828,-29.38 51.625,4.42 27.799,33.81 -89.348,135.07 -89.348,135.07 0,0 -67.511,-82.26 -71.48,-128.49 -3.973,-46.24 47.652,-39.51 55.594,-17.06 0,0 39.273,-181.87 -55.813,-183.95 -95.09,-2.09 -150.687,170.17 -152.676,218.07 0,0 25.817,-37.32 61.555,17.2 35.742,54.52 -152.89,127.98 -152.89,127.98 l 135.019,-485.97" /><path
         id="path18"
         style="fill:#e6ce62;fill-opacity:1;fill-rule:nonzero;stroke:none"
         d="m 1502.83,2076.08 -45.57,67.7 -45.56,-67.7 -45.57,67.7 -45.56,-67.7 -45.56,67.7 -45.57,-67.7 -45.56,67.7 -45.57,-67.7 -45.56,67.7 -45.56,-67.7 -45.57,67.7 -45.561,-67.7 -45.567,67.7 -45.562,-67.7 -45.567,67.7 -45.562,-67.7 -45.567,67.7 h 820.156 z m 45.56,50.11 v -67.7 H 773.801 728.234 v 67.7 l 45.567,-67.7 45.562,67.7 45.567,-67.7 45.562,67.7 45.567,-67.7 45.561,67.7 45.56,-67.7 45.57,67.7 45.56,-67.7 45.57,67.7 45.56,-67.7 45.56,67.7 45.57,-67.7 45.56,67.7 45.57,-67.7 45.56,67.7 45.56,-67.7 45.57,67.7 z m 10.29,23.81 H 718.871 v -96.18 H 1558.68 V 2150" /><path
         id="path20"
         style="fill:#e6ce62;fill-opacity:1;fill-rule:nonzero;stroke:none"
         d="m 703.797,2019.85 v -10.88 c 0,-8.03 6.566,-14.6 14.598,-14.6 h 840.765 c 8.03,0 14.6,6.57 14.6,14.6 v 10.88 c 0,8.03 -6.57,14.6 -14.6,14.6 H 718.395 c -8.032,0 -14.598,-6.57 -14.598,-14.6" /><path
         id="path22"
         style="fill:#e6ce62;fill-opacity:1;fill-rule:nonzero;stroke:none"
         d="m 718.117,1957.52 c 6.016,0 10.895,-4.88 10.895,-10.89 0,-6.02 -4.879,-10.9 -10.895,-10.9 -6.015,0 -10.894,4.88 -10.894,10.9 0,6.01 4.879,10.89 10.894,10.89 z m 56.028,0 c 6.015,0 10.89,-4.88 10.89,-10.89 0,-6.02 -4.875,-10.9 -10.89,-10.9 -6.016,0 -10.895,4.88 -10.895,10.9 0,6.01 4.879,10.89 10.895,10.89 z m 56.023,0 c 6.02,0 10.895,-4.88 10.895,-10.89 0,-6.02 -4.875,-10.9 -10.895,-10.9 -6.016,0 -10.891,4.88 -10.891,10.9 0,6.01 4.875,10.89 10.891,10.89 z m 56.027,0 c 6.016,0 10.895,-4.88 10.895,-10.89 0,-6.02 -4.879,-10.9 -10.895,-10.9 -6.015,0 -10.894,4.88 -10.894,10.9 0,6.01 4.879,10.89 10.894,10.89 z m 56.028,0 c 6.015,0 10.89,-4.88 10.89,-10.89 0,-6.02 -4.875,-10.9 -10.89,-10.9 -6.02,0 -10.895,4.88 -10.895,10.9 0,6.01 4.875,10.89 10.895,10.89 z m 56.023,0 c 6.014,0 10.894,-4.88 10.894,-10.89 0,-6.02 -4.88,-10.9 -10.894,-10.9 -6.016,0 -10.891,4.88 -10.891,10.9 0,6.01 4.875,10.89 10.891,10.89 z m 56.024,0 c 6.02,0 10.9,-4.88 10.9,-10.89 0,-6.02 -4.88,-10.9 -10.9,-10.9 -6.01,0 -10.89,4.88 -10.89,10.9 0,6.01 4.88,10.89 10.89,10.89 z m 56.03,0 c 6.02,0 10.89,-4.88 10.89,-10.89 0,-6.02 -4.87,-10.9 -10.89,-10.9 -6.02,0 -10.89,4.88 -10.89,10.9 0,6.01 4.87,10.89 10.89,10.89 z m 56.03,0 c 6.01,0 10.89,-4.88 10.89,-10.89 0,-6.02 -4.88,-10.9 -10.89,-10.9 -6.02,0 -10.9,4.88 -10.9,10.9 0,6.01 4.88,10.89 10.9,10.89 z m 56.02,0 c 6.02,0 10.9,-4.88 10.9,-10.89 0,-6.02 -4.88,-10.9 -10.9,-10.9 -6.01,0 -10.89,4.88 -10.89,10.9 0,6.01 4.88,10.89 10.89,10.89 z m 56.03,0 c 6.01,0 10.89,-4.88 10.89,-10.89 0,-6.02 -4.88,-10.9 -10.89,-10.9 -6.02,0 -10.9,4.88 -10.9,10.9 0,6.01 4.88,10.89 10.9,10.89 z m 56.02,0 c 6.02,0 10.9,-4.88 10.9,-10.89 0,-6.02 -4.88,-10.9 -10.9,-10.9 -6.01,0 -10.89,4.88 -10.89,10.9 0,6.01 4.88,10.89 10.89,10.89 z m 56.03,0 c 6.02,0 10.89,-4.88 10.89,-10.89 0,-6.02 -4.87,-10.9 -10.89,-10.9 -6.02,0 -10.89,4.88 -10.89,10.9 0,6.01 4.87,10.89 10.89,10.89 z m 56.03,0 c 6.01,0 10.89,-4.88 10.89,-10.89 0,-6.02 -4.88,-10.9 -10.89,-10.9 -6.02,0 -10.9,4.88 -10.9,10.9 0,6.01 4.88,10.89 10.9,10.89 z m 56.02,0 c 6.02,0 10.9,-4.88 10.9,-10.89 0,-6.02 -4.88,-10.9 -10.9,-10.9 -6.01,0 -10.89,4.88 -10.89,10.9 0,6.01 4.88,10.89 10.89,10.89 z m 56.03,0 c 6.02,0 10.89,-4.88 10.89,-10.89 0,-6.02 -4.87,-10.9 -10.89,-10.9 -6.02,0 -10.89,4.88 -10.89,10.9 0,6.01 4.87,10.89 10.89,10.89 z M 688.234,1916 h 901.086 c 0,0 6.23,61.25 -38.91,61.25 -20.23,0 -411.63,0 -411.63,0 0,0 -391.409,0 -411.639,0 -45.133,0 -38.907,-61.25 -38.907,-61.25" /><path
         id="path24"
         style="fill:#e6ce62;fill-opacity:1;fill-rule:nonzero;stroke:none"
         d="m 742.547,2137.55 31.254,-45.21 31.254,45.21 h -62.508" /><path
         id="path26"
         style="fill:#e6ce62;fill-opacity:1;fill-rule:nonzero;stroke:none"
         d="m 833.676,2137.55 31.254,-45.21 31.254,45.21 h -62.508" /><path
         id="path28"
         style="fill:#e6ce62;fill-opacity:1;fill-rule:nonzero;stroke:none"
         d="m 924.801,2137.55 31.258,-45.21 31.254,45.21 h -62.512" /><path
         id="path30"
         style="fill:#e6ce62;fill-opacity:1;fill-rule:nonzero;stroke:none"
         d="m 1015.93,2137.55 31.25,-45.21 31.26,45.21 h -62.51" /><path
         id="path32"
         style="fill:#e6ce62;fill-opacity:1;fill-rule:nonzero;stroke:none"
         d="m 1107.06,2137.55 31.25,-45.21 31.26,45.21 h -62.51" /><path
         id="path34"
         style="fill:#e6ce62;fill-opacity:1;fill-rule:nonzero;stroke:none"
         d="m 1198.18,2137.55 31.26,-45.21 31.25,45.21 h -62.51" /><path
         id="path36"
         style="fill:#e6ce62;fill-opacity:1;fill-rule:nonzero;stroke:none"
         d="m 1289.31,2137.55 31.26,-45.21 31.25,45.21 h -62.51" /><path
         id="path38"
         style="fill:#e6ce62;fill-opacity:1;fill-rule:nonzero;stroke:none"
         d="m 1380.44,2137.55 31.26,-45.21 31.25,45.21 h -62.51" /><path
         id="path40"
         style="fill:#e6ce62;fill-opacity:1;fill-rule:nonzero;stroke:none"
         d="m 1471.57,2137.55 31.25,-45.21 31.26,45.21 h -62.51" /><path
         id="path42"
         style="fill:#e6ce62;fill-opacity:1;fill-rule:nonzero;stroke:none"
         d="m 819.367,2064.72 h 31.254 l -31.254,45.21 -31.254,-45.21 h 31.254" /><path
         id="path44"
         style="fill:#e6ce62;fill-opacity:1;fill-rule:nonzero;stroke:none"
         d="m 910.496,2064.72 h 31.254 l -31.254,45.21 -31.258,-45.21 h 31.258" /><path
         id="path46"
         style="fill:#e6ce62;fill-opacity:1;fill-rule:nonzero;stroke:none"
         d="m 1001.62,2064.72 h 31.26 l -31.26,45.21 -31.253,-45.21 h 31.253" /><path
         id="path48"
         style="fill:#e6ce62;fill-opacity:1;fill-rule:nonzero;stroke:none"
         d="M 1092.75,2064.72 H 1124 l -31.25,45.21 -31.26,-45.21 h 31.26" /><path
         id="path50"
         style="fill:#e6ce62;fill-opacity:1;fill-rule:nonzero;stroke:none"
         d="m 1183.88,2064.72 h 31.25 l -31.25,45.21 -31.26,-45.21 h 31.26" /><path
         id="path52"
         style="fill:#e6ce62;fill-opacity:1;fill-rule:nonzero;stroke:none"
         d="m 1275.01,2064.72 h 31.25 l -31.25,45.21 -31.26,-45.21 h 31.26" /><path
         id="path54"
         style="fill:#e6ce62;fill-opacity:1;fill-rule:nonzero;stroke:none"
         d="m 1366.13,2064.72 h 31.26 l -31.26,45.21 -31.25,-45.21 h 31.25" /><path
         id="path56"
         style="fill:#e6ce62;fill-opacity:1;fill-rule:nonzero;stroke:none"
         d="m 1457.26,2064.72 h 31.25 l -31.25,45.21 -31.25,-45.21 h 31.25" /><path
         id="path58"
         style="fill:#e6ce62;fill-opacity:1;fill-rule:nonzero;stroke:none"
         d="m 1548.39,2064.72 v 45.21 l -31.26,-45.21 h 31.26" /><path
         id="path60"
         style="fill:#e6ce62;fill-opacity:1;fill-rule:nonzero;stroke:none"
         d="m 728.234,2109.93 v -45.21 h 31.258 l -31.258,45.21" /><path
         id="path62"
         style="fill:#e6ce62;fill-opacity:1;fill-rule:nonzero;stroke:none"
         d="m 2992.97,2111.29 h -855.48 c -3.61,0 -6.57,2.95 -6.57,6.57 0,3.61 2.96,6.57 6.57,6.57 h 855.48 c 3.62,0 6.57,-2.96 6.57,-6.57 0,-3.62 -2.95,-6.57 -6.57,-6.57 z m 14.09,30.79 H 2123.4 c -13.19,0 -23.97,-10.9 -23.97,-24.22 0,-13.33 10.78,-24.23 23.97,-24.23 h 883.66 c 13.19,0 23.97,10.9 23.97,24.23 0,13.32 -10.78,24.22 -23.97,24.22" /><path
         id="path64"
         style="fill:#e6ce62;fill-opacity:1;fill-rule:nonzero;stroke:none"
         d="m 2992.97,1932.58 h -855.48 c -3.61,0 -6.57,2.96 -6.57,6.57 0,3.61 2.96,6.57 6.57,6.57 h 855.48 c 3.62,0 6.57,-2.96 6.57,-6.57 0,-3.61 -2.95,-6.57 -6.57,-6.57 z m 38.06,7.64 c 0,13.33 -10.78,24.23 -23.97,24.23 H 2123.4 c -13.18,0 -23.97,-10.9 -23.97,-24.23 0,-13.32 10.79,-24.22 23.97,-24.22 h 883.66 c 13.19,0 23.97,10.9 23.97,24.22" /><path
         id="path66"
         style="fill:#e6ce62;fill-opacity:1;fill-rule:nonzero;stroke:none"
         d="m 2393.9,2042.18 c 7.26,0 13.14,-5.88 13.14,-13.14 0,-7.26 -5.88,-13.14 -13.14,-13.14 -7.25,0 -13.14,5.88 -13.14,13.14 0,7.26 5.89,13.14 13.14,13.14 z m 76.93,3.29 c 9.07,0 16.43,-7.36 16.43,-16.43 0,-9.07 -7.36,-16.42 -16.43,-16.42 -9.07,0 -16.42,7.35 -16.42,16.42 0,9.07 7.35,16.43 16.42,16.43 z m 68.18,-1.29 26.22,15.14 26.23,-15.14 v -30.28 l -26.23,-15.14 -26.22,15.14 z m 120.62,1.29 c 9.07,0 16.42,-7.36 16.42,-16.43 0,-9.07 -7.35,-16.42 -16.42,-16.42 -9.07,0 -16.43,7.35 -16.43,16.42 0,9.07 7.36,16.43 16.43,16.43 z m 76.93,-3.29 c 7.26,0 13.14,-5.88 13.14,-13.14 0,-7.26 -5.88,-13.14 -13.14,-13.14 -7.26,0 -13.14,5.88 -13.14,13.14 0,7.26 5.88,13.14 13.14,13.14 z m -171.33,-58.35 h 445.43 c -35.16,46.83 0,90.43 0,90.43 H 2119.8 c 0,0 35.16,-43.6 0,-90.43 h 445.43" /><path
         id="path68"
         style="fill:#e6ce62;fill-opacity:1;fill-rule:nonzero;stroke:none"
         d="m 2598.99,2576.09 c -1.18,48.64 -33.76,97.27 -33.76,97.27 0,0 -32.58,-48.63 -33.76,-97.27 -1.18,-48.64 33.76,-60.98 33.76,-60.98 0,0 34.94,12.34 33.76,60.98" /><path
         id="path70"
         style="fill:#e6ce62;fill-opacity:1;fill-rule:nonzero;stroke:none"
         d="m 2313.24,2280.03 c 0,0 21.21,-51.35 76.64,-51.46 l 7.66,-26.28 h -124.82 l -5.47,18.62 c 0,0 45.99,8.76 45.99,59.12 z m -66.1,191.84 c -6.08,46.46 18.86,97.87 18.86,97.87 0,0 39.42,-41.12 47.83,-87.2 8.42,-46.09 -24.26,-63.35 -24.26,-63.35 0,0 -36.35,6.22 -42.43,52.68 z m 318.09,-165.56 c 0,0 18.21,-63.5 82.81,-78.83 l -5.48,-25.19 H 2487.9 l -5.48,25.19 c 64.6,15.33 82.81,78.83 82.81,78.83 z m -60.85,271.14 c 2.13,74.2 60.85,148.4 60.85,148.4 0,0 58.73,-74.2 60.86,-148.4 2.13,-74.2 -60.86,-93.02 -60.86,-93.02 0,0 -62.99,18.82 -60.85,93.02 z m 236.2,-348.88 c 55.43,0.11 76.65,51.46 76.65,51.46 0,-50.36 45.98,-59.12 45.98,-59.12 l -5.47,-18.62 h -124.82 z m 75.59,253.97 c 8.41,46.08 47.84,87.2 47.84,87.2 0,0 24.93,-51.41 18.85,-97.87 -6.08,-46.46 -42.43,-52.68 -42.43,-52.68 0,0 -32.68,17.26 -24.26,63.35 z m -834.72,169.83 20.51,-68.01 c 0,0 113.85,-82.59 49.81,-165.17 v 0 l 66.03,-218.97 v -38.76 h 894.86 v 38.76 l 65.97,218.76 -0.4,0.21 c -64.04,82.58 49.81,165.17 49.81,165.17 l 0.47,0.01 20.5,68 c -193.88,-131.34 -115.05,-245.46 -115.05,-245.46 l -55.39,-24.76 34.09,-54.9 c -22.38,-92.58 -100.27,-102.27 -100.27,-102.27 l -5.2,-24.76 h -20.24 l 5.33,30.14 c -54.33,12.92 -43.68,68.9 -43.68,68.9 l 39.83,38.42 -30.24,52.01 c 113.99,72.13 12.78,233.61 12.78,233.61 -150.34,-137.26 -56.46,-229.3 -56.46,-229.3 l -49.51,-35.34 28.21,-48.64 c -15.98,-73.2 -83.1,-67.82 -83.1,-67.82 l -10.65,-41.98 h -19.18 l 12.79,47.63 c -83.1,21.8 -92.68,97.7 -92.68,97.7 l 44.74,58.13 -47.94,54.91 c 162.99,96.89 -31.96,327.27 -31.96,327.27 0,0 -194.95,-230.38 -31.96,-327.27 l -47.94,-54.91 44.75,-58.13 c 0,0 -9.59,-75.9 -92.69,-97.7 l 12.79,-47.63 H 2431 l -10.65,41.98 c 0,0 -67.11,-5.38 -83.09,67.82 l 28.21,48.64 -49.52,35.34 c 0,0 96.28,100.12 -56.46,229.3 0,0 -101.2,-161.48 12.78,-233.61 l -30.24,-52.01 39.83,-38.42 c 0,0 10.65,-55.98 -43.68,-68.9 l 5.33,-30.14 h -20.24 l -5.2,24.76 c 0,0 -77.89,9.69 -100.27,102.27 l 34.09,54.9 -55.39,24.76 c 0,0 78.83,114.12 -115.05,245.46" /><path
         id="path72"
         style="fill:#e6ce62;fill-opacity:1;fill-rule:nonzero;stroke:none"
         d="m 2053.09,2494.47 c -6.39,36.79 -42.95,62.28 -42.95,62.28 l 35.76,-120.36 c 0,0 13.58,21.29 7.19,58.08" /><path
         id="path74"
         style="fill:#e6ce62;fill-opacity:1;fill-rule:nonzero;stroke:none"
         d="m 3084.35,2434.28 35.75,120.37 c 0,0 -36.55,-25.49 -42.95,-62.28 -6.39,-36.79 7.2,-58.09 7.2,-58.09" /><path
         id="path76"
         style="fill:#e6ce62;fill-opacity:1;fill-rule:nonzero;stroke:none"
         d="M 3971.81,2203.5 H 3464.1 l 12.91,-39.45 h 989.61 l 12.91,39.45 h -507.72" /><path
         id="path78"
         style="fill:#e6ce62;fill-opacity:1;fill-rule:nonzero;stroke:none"
         d="m 3971.81,1995.38 h 507.72 l -12.91,39.46 h -989.61 l -12.91,-39.46 h 507.71" /><path
         id="path80"
         style="fill:#e6ce62;fill-opacity:1;fill-rule:nonzero;stroke:none"
         d="m 3967.39,2103.88 c 0,7.69 4.05,13.92 9.05,13.92 4.99,0 9.04,-6.23 9.04,-13.92 0,-7.69 -4.05,-13.92 -9.04,-13.92 -5,0 -9.05,6.23 -9.05,13.92 z m -33.7,-13.92 c -5,0 -9.05,6.23 -9.05,13.92 0,7.69 4.05,13.92 9.05,13.92 4.99,0 9.04,-6.23 9.04,-13.92 0,-7.69 -4.05,-13.92 -9.04,-13.92 z m -42.75,0 c -4.99,0 -9.04,6.23 -9.04,13.92 0,7.69 4.05,13.92 9.04,13.92 5,0 9.05,-6.23 9.05,-13.92 0,-7.69 -4.05,-13.92 -9.05,-13.92 z m -42.74,0 c -5,0 -9.05,6.23 -9.05,13.92 0,7.69 4.05,13.92 9.05,13.92 4.99,0 9.04,-6.23 9.04,-13.92 0,-7.69 -4.05,-13.92 -9.04,-13.92 z m -42.75,0 c -4.99,0 -9.04,6.23 -9.04,13.92 0,7.69 4.05,13.92 9.04,13.92 5,0 9.05,-6.23 9.05,-13.92 0,-7.69 -4.05,-13.92 -9.05,-13.92 z m -42.74,0 c -5,0 -9.05,6.23 -9.05,13.92 0,7.69 4.05,13.92 9.05,13.92 4.99,0 9.04,-6.23 9.04,-13.92 0,-7.69 -4.05,-13.92 -9.04,-13.92 z m -42.75,0 c -5,0 -9.05,6.23 -9.05,13.92 0,7.69 4.05,13.92 9.05,13.92 5,0 9.05,-6.23 9.05,-13.92 0,-7.69 -4.05,-13.92 -9.05,-13.92 z m -42.75,0 c -4.99,0 -9.04,6.23 -9.04,13.92 0,7.69 4.05,13.92 9.04,13.92 5,0 9.05,-6.23 9.05,-13.92 0,-7.69 -4.05,-13.92 -9.05,-13.92 z m -42.74,0 c -5,0 -9.05,6.23 -9.05,13.92 0,7.69 4.05,13.92 9.05,13.92 4.99,0 9.04,-6.23 9.04,-13.92 0,-7.69 -4.05,-13.92 -9.04,-13.92 z m -42.75,0 c -4.99,0 -9.04,6.23 -9.04,13.92 0,7.69 4.05,13.92 9.04,13.92 5,0 9.05,-6.23 9.05,-13.92 0,-7.69 -4.05,-13.92 -9.05,-13.92 z m -42.74,0 c -5,0 -9.05,6.23 -9.05,13.92 0,7.69 4.05,13.92 9.05,13.92 4.99,0 9.04,-6.23 9.04,-13.92 0,-7.69 -4.05,-13.92 -9.04,-13.92 z m -42.75,0 c -4.99,0 -9.04,6.23 -9.04,13.92 0,7.69 4.05,13.92 9.04,13.92 5,0 9.05,-6.23 9.05,-13.92 0,-7.69 -4.05,-13.92 -9.05,-13.92 z m 512.95,27.84 c 5,0 9.05,-6.23 9.05,-13.92 0,-7.69 -4.05,-13.92 -9.05,-13.92 -4.99,0 -9.04,6.23 -9.04,13.92 0,7.69 4.05,13.92 9.04,13.92 z m 42.75,0 c 4.99,0 9.04,-6.23 9.04,-13.92 0,-7.69 -4.05,-13.92 -9.04,-13.92 -5,0 -9.05,6.23 -9.05,13.92 0,7.69 4.05,13.92 9.05,13.92 z m 42.74,0 c 5,0 9.05,-6.23 9.05,-13.92 0,-7.69 -4.05,-13.92 -9.05,-13.92 -4.99,0 -9.04,6.23 -9.04,13.92 0,7.69 4.05,13.92 9.04,13.92 z m 42.75,0 c 4.99,0 9.04,-6.23 9.04,-13.92 0,-7.69 -4.05,-13.92 -9.04,-13.92 -5,0 -9.05,6.23 -9.05,13.92 0,7.69 4.05,13.92 9.05,13.92 z m 42.74,0 c 5,0 9.05,-6.23 9.05,-13.92 0,-7.69 -4.05,-13.92 -9.05,-13.92 -4.99,0 -9.04,6.23 -9.04,13.92 0,7.69 4.05,13.92 9.04,13.92 z m 42.75,0 c 5,0 9.04,-6.23 9.04,-13.92 0,-7.69 -4.04,-13.92 -9.04,-13.92 -5,0 -9.05,6.23 -9.05,13.92 0,7.69 4.05,13.92 9.05,13.92 z m 42.75,0 c 4.99,0 9.04,-6.23 9.04,-13.92 0,-7.69 -4.05,-13.92 -9.04,-13.92 -5,0 -9.05,6.23 -9.05,13.92 0,7.69 4.05,13.92 9.05,13.92 z m 42.74,0 c 5,0 9.05,-6.23 9.05,-13.92 0,-7.69 -4.05,-13.92 -9.05,-13.92 -4.99,0 -9.04,6.23 -9.04,13.92 0,7.69 4.05,13.92 9.04,13.92 z m 42.75,0 c 4.99,0 9.04,-6.23 9.04,-13.92 0,-7.69 -4.05,-13.92 -9.04,-13.92 -5,0 -9.05,6.23 -9.05,13.92 0,7.69 4.05,13.92 9.05,13.92 z m 42.74,0 c 5,0 9.05,-6.23 9.05,-13.92 0,-7.69 -4.05,-13.92 -9.05,-13.92 -4.99,0 -9.04,6.23 -9.04,13.92 0,7.69 4.05,13.92 9.04,13.92 z m 42.75,0 c 4.99,0 9.04,-6.23 9.04,-13.92 0,-7.69 -4.05,-13.92 -9.04,-13.92 -5,0 -9.05,6.23 -9.05,13.92 0,7.69 4.05,13.92 9.05,13.92 z m 21.77,-50.41 v 72.99 h -993.19 v -72.99 h 993.19" /><path
         id="path82"
         style="fill:#e6ce62;fill-opacity:1;fill-rule:nonzero;stroke:none"
         d="m 4469.61,1941.49 c 0,-3.31 -2.7,-6.02 -6.02,-6.02 h -974.31 c -3.31,0 -6.02,2.71 -6.02,6.02 v 1.78 c 0,3.31 2.71,6.02 6.02,6.02 h 974.31 c 3.32,0 6.02,-2.71 6.02,-6.02 z m 24.93,-2.51 v 6.79 c 0,12.64 -10.34,22.98 -22.98,22.98 h -990.24 c -12.65,0 -22.99,-10.34 -22.99,-22.98 v -6.79 c 0,-12.64 10.34,-22.98 22.99,-22.98 h 990.24 c 12.64,0 22.98,10.34 22.98,22.98" /><path
         id="path84"
         style="fill:#e6ce62;fill-opacity:1;fill-rule:nonzero;stroke:none"
         d="m 4407.46,2247.08 c -11.81,0 -21.38,9.58 -21.38,21.39 0,11.8 9.57,21.38 21.38,21.38 11.81,0 21.38,-9.58 21.38,-21.38 0,-11.81 -9.57,-21.39 -21.38,-21.39 z m -73.17,0 c -8.9,0 -16.11,7.22 -16.11,16.12 0,8.89 7.21,16.11 16.11,16.11 8.89,0 16.11,-7.22 16.11,-16.11 0,-8.9 -7.22,-16.12 -16.11,-16.12 z m -65.29,0 c -8.25,0 -14.93,6.69 -14.93,14.94 0,8.25 6.68,14.94 14.93,14.94 8.25,0 14.94,-6.69 14.94,-14.94 0,-8.25 -6.69,-14.94 -14.94,-14.94 z m -292.56,21.39 h -104.05 c 66.96,18.92 104.05,139.84 104.05,139.84 0,0 37.08,-120.92 104.05,-139.84 z m -111.01,377.35 c 0,0 67.72,30.34 111.01,-47.67 43.28,78.01 111,47.67 111,47.67 -88.41,0 -111,-84.95 -111,-84.95 0,0 -22.6,84.95 -111.01,84.95 z m 111.01,138.12 c 0,0 60.04,-67.04 0,-94.78 -60.05,27.74 0,94.78 0,94.78 z m -292.57,-536.86 c -8.25,0 -14.94,6.69 -14.94,14.94 0,8.25 6.69,14.94 14.94,14.94 8.25,0 14.93,-6.69 14.93,-14.94 0,-8.25 -6.68,-14.94 -14.93,-14.94 z m -65.29,0 c -8.89,0 -16.11,7.22 -16.11,16.12 0,8.89 7.22,16.11 16.11,16.11 8.9,0 16.11,-7.22 16.11,-16.11 0,-8.9 -7.21,-16.12 -16.11,-16.12 z m -73.17,0 c -11.81,0 -21.38,9.58 -21.38,21.39 0,11.8 9.57,21.38 21.38,21.38 11.81,0 21.38,-9.58 21.38,-21.38 0,-11.81 -9.57,-21.39 -21.38,-21.39 z m 892.13,102.93 c -0.07,1.37 -0.17,2.74 -0.46,4.17 0,0 -18.02,286.99 -349.26,234.98 0,0 160.37,3.47 231.82,-90.15 71.45,-93.62 52.54,-167.54 8.26,-189.53 -2.84,-1.4 -4.79,-2.67 -6.01,-3.8 -19.67,-5.05 -41.41,-9.36 -64.92,-12.14 0.65,1.71 1.28,3.45 1.83,5.35 28.28,97.83 -37.6,279.87 -179.76,278.13 0,0 108.57,-37.98 119.3,-161.23 10.73,-123.25 -58.73,-112.45 -58.73,-112.45 0,0 2.35,-1.86 6.37,-4.72 -105.78,37.1 -136.8,186.32 -136.8,186.32 0,0 9.66,-23.4 47.11,-22.17 37.45,1.23 47.12,35.72 47.12,35.72 0,0 -31.41,-25.87 -35.04,20.95 -3.62,46.81 -43.8,34.49 -43.8,34.49 14.19,81.3 101.79,86.23 101.79,86.23 -65.23,66.53 -120.8,17.91 -120.8,17.91 91.81,77.04 -29.12,181.66 -29.12,181.66 0,0 -120.94,-104.62 -29.13,-181.66 0,0 -55.57,48.62 -120.8,-17.91 0,0 87.6,-4.93 101.79,-86.23 0,0 -40.18,12.32 -43.8,-34.49 -3.63,-46.82 -35.04,-20.95 -35.04,-20.95 0,0 9.67,-34.49 47.12,-35.72 37.44,-1.23 47.11,22.17 47.11,22.17 0,0 -29.8,-143.25 -130.52,-183.93 -4.99,-0.59 -68.69,-5.93 -58.38,112.5 10.73,123.25 119.3,161.23 119.3,161.23 -142.16,1.74 -208.04,-180.3 -179.76,-278.13 0.31,-1.06 0.68,-1.99 1.02,-2.99 -25.62,3.05 -49.11,7.93 -70.12,13.58 -44.28,21.99 -63.19,95.91 8.26,189.53 71.45,93.62 231.82,90.15 231.82,90.15 -331.24,52.01 -349.26,-234.98 -349.26,-234.98 l -47.12,-124.43 h 1015.01 l -46.4,122.54" /><path
         id="path86"
         style="fill:#e6ce62;fill-opacity:1;fill-rule:nonzero;stroke:none"
         d="M 1548.54,958.582 H 729.012 c -7.285,0 -13.25,-5.961 -13.25,-13.254 v -0.937 c 0,-7.289 5.965,-13.262 13.25,-13.262 h 819.528 c 7.29,0 13.25,5.973 13.25,13.262 v 0.937 c 0,7.293 -5.96,13.254 -13.25,13.254" /><path
         id="path88"
         style="fill:#e6ce62;fill-opacity:1;fill-rule:nonzero;stroke:none"
         d="M 1548.54,810.02 H 729.012 c -7.285,0 -13.25,-5.961 -13.25,-13.25 v -0.95 c 0,-7.289 5.965,-13.25 13.25,-13.25 h 819.528 c 7.29,0 13.25,5.961 13.25,13.25 v 0.95 c 0,7.289 -5.96,13.25 -13.25,13.25" /><path
         id="path90"
         style="fill:#e6ce62;fill-opacity:1;fill-rule:nonzero;stroke:none"
         d="m 797.918,882.738 c 6.262,0 11.34,-5.066 11.34,-11.336 0,-6.261 -5.078,-11.343 -11.34,-11.343 -6.266,0 -11.344,5.082 -11.344,11.343 0,6.27 5.078,11.336 11.344,11.336 z m 54.449,0 c 6.262,0 11.34,-5.066 11.34,-11.336 0,-6.261 -5.078,-11.343 -11.34,-11.343 -6.265,0 -11.344,5.082 -11.344,11.343 0,6.27 5.079,11.336 11.344,11.336 z m 54.449,0 c 6.262,0 11.34,-5.066 11.34,-11.336 0,-6.261 -5.078,-11.343 -11.34,-11.343 -6.265,0 -11.343,5.082 -11.343,11.343 0,6.27 5.078,11.336 11.343,11.336 z m 54.45,0 c 6.261,0 11.339,-5.066 11.339,-11.336 0,-6.261 -5.078,-11.343 -11.339,-11.343 -6.266,0 -11.34,5.082 -11.34,11.343 0,6.27 5.074,11.336 11.34,11.336 z m 54.444,0 c 6.27,0 11.34,-5.066 11.34,-11.336 0,-6.261 -5.07,-11.343 -11.34,-11.343 -6.26,0 -11.34,5.082 -11.34,11.343 0,6.27 5.08,11.336 11.34,11.336 z m 54.45,0 c 6.27,0 11.34,-5.066 11.34,-11.336 0,-6.261 -5.07,-11.343 -11.34,-11.343 -6.26,0 -11.34,5.082 -11.34,11.343 0,6.27 5.08,11.336 11.34,11.336 z m 44.38,2.66 24.24,13.993 24.24,-13.993 V 857.41 l -24.24,-14 -24.24,14 z m 92.85,-2.66 c 6.26,0 11.34,-5.066 11.34,-11.336 0,-6.261 -5.08,-11.343 -11.34,-11.343 -6.26,0 -11.34,5.082 -11.34,11.343 0,6.27 5.08,11.336 11.34,11.336 z m 54.45,0 c 6.26,0 11.34,-5.066 11.34,-11.336 0,-6.261 -5.08,-11.343 -11.34,-11.343 -6.27,0 -11.34,5.082 -11.34,11.343 0,6.27 5.07,11.336 11.34,11.336 z m 54.45,0 c 6.26,0 11.34,-5.066 11.34,-11.336 0,-6.261 -5.08,-11.343 -11.34,-11.343 -6.27,0 -11.34,5.082 -11.34,11.343 0,6.27 5.07,11.336 11.34,11.336 z m 54.45,0 c 6.26,0 11.34,-5.066 11.34,-11.336 0,-6.261 -5.08,-11.343 -11.34,-11.343 -6.27,0 -11.34,5.082 -11.34,11.343 0,6.27 5.07,11.336 11.34,11.336 z m 54.45,0 c 6.26,0 11.34,-5.066 11.34,-11.336 0,-6.261 -5.08,-11.343 -11.34,-11.343 -6.27,0 -11.35,5.082 -11.35,11.343 0,6.27 5.08,11.336 11.35,11.336 z m 54.45,0 c 6.26,0 11.34,-5.066 11.34,-11.336 0,-6.261 -5.08,-11.343 -11.34,-11.343 -6.27,0 -11.35,5.082 -11.35,11.343 0,6.27 5.08,11.336 11.35,11.336 z M 730.852,823.77 H 1546.7 c 0,0 -22.68,19.281 -22.68,47.632 0,28.348 22.68,47.629 22.68,47.629 H 730.852 c 0,0 22.683,-19.281 22.683,-47.629 0,-28.351 -22.683,-47.632 -22.683,-47.632" /><path
         id="path92"
         style="fill:#e6ce62;fill-opacity:1;fill-rule:nonzero;stroke:none"
         d="m 1436.95,1023.28 -18.49,35.86 18.49,35.85 18.48,-35.85 z m -89.22,-11.34 -24.33,47.2 24.33,47.19 24.33,-47.19 z m -102.07,-5.96 -27.4,53.16 27.4,53.15 27.41,-53.15 z m -106.88,-14.371 -34.81,67.531 34.81,67.52 34.8,-67.52 z m -106.89,14.371 -27.4,53.16 27.4,53.15 27.4,-53.15 z m -102.07,5.96 -24.328,47.2 24.328,47.19 24.328,-47.19 z m -89.215,11.34 -18.484,35.86 18.484,35.85 18.485,-35.85 z m 654.125,136.65 c -15.81,-17.61 -45.02,-7.79 -47,15.79 l -17.58,209.53 c -1.6,-0.13 -3.21,-0.24 -4.84,-0.24 -9.23,0 -17.92,2.22 -25.66,6.07 L 1292.9,1175.87 c -10.96,-22.09 -43.36,-19.15 -50.15,4.56 l -88.06,307.39 c -5.06,-1.45 -10.39,-2.27 -15.91,-2.27 -5.53,0 -10.86,0.82 -15.91,2.27 l -88.06,-307.39 c -6.8,-23.71 -39.201,-26.65 -50.162,-4.56 l -106.746,215.21 c -7.738,-3.85 -16.433,-6.07 -25.664,-6.07 -1.633,0 -3.234,0.11 -4.832,0.24 l -17.59,-209.53 c -1.976,-23.58 -31.179,-33.4 -47,-15.79 l -153.734,171.08 c -4.172,-3.75 -9.066,-6.62 -14.48,-8.49 L 734.105,975.039 h 809.345 l 119.5,347.481 c -5.42,1.87 -10.31,4.74 -14.48,8.49 l -153.74,-171.08" /><path
         id="path94"
         style="fill:#e6ce62;fill-opacity:1;fill-rule:nonzero;stroke:none"
         d="m 1115.14,1543.36 c 0,13.06 10.58,23.64 23.64,23.64 13.05,0 23.63,-10.58 23.63,-23.64 0,-10.79 -7.27,-19.79 -17.15,-22.63 l 9.43,-32.91 c 24.18,6.92 41.9,29.14 41.9,55.54 0,31.93 -25.89,57.81 -57.81,57.81 -31.93,0 -57.81,-25.88 -57.81,-57.81 0,-26.4 17.71,-48.62 41.9,-55.54 l 9.42,32.91 c -9.88,2.84 -17.15,11.84 -17.15,22.63" /><path
         id="path96"
         style="fill:#e6ce62;fill-opacity:1;fill-rule:nonzero;stroke:none"
         d="m 1154.69,1487.82 -9.43,32.91 c -2.08,-0.59 -4.22,-1.01 -6.48,-1.01 -2.27,0 -4.41,0.42 -6.49,1.01 l -9.42,-32.91 c 5.05,-1.45 10.38,-2.27 15.91,-2.27 5.52,0 10.85,0.82 15.91,2.27" /><path
         id="path98"
         style="fill:#e6ce62;fill-opacity:1;fill-rule:nonzero;stroke:none"
         d="m 828.602,1442.82 c 0,13.05 10.582,23.64 23.636,23.64 13.055,0 23.637,-10.59 23.637,-23.64 0,-9.28 -5.395,-17.23 -13.172,-21.1 l 15.199,-30.64 c 19.036,9.46 32.145,29.04 32.145,51.74 0,31.93 -25.879,57.81 -57.809,57.81 -31.925,0 -57.808,-25.88 -57.808,-57.81 0,-30.3 23.316,-55.11 52.976,-57.57 l 2.864,34.13 c -12.118,1.02 -21.668,11.06 -21.668,23.44" /><path
         id="path100"
         style="fill:#e6ce62;fill-opacity:1;fill-rule:nonzero;stroke:none"
         d="m 877.902,1391.08 -15.199,30.64 c -3.168,-1.57 -6.687,-2.54 -10.465,-2.54 -0.675,0 -1.308,0.14 -1.968,0.2 l -2.864,-34.13 c 1.598,-0.13 3.199,-0.24 4.832,-0.24 9.231,0 17.926,2.22 25.664,6.07" /><path
         id="path102"
         style="fill:#e6ce62;fill-opacity:1;fill-rule:nonzero;stroke:none"
         d="m 1401.67,1442.82 c 0,13.05 10.59,23.64 23.64,23.64 13.06,0 23.64,-10.59 23.64,-23.64 0,-12.38 -9.55,-22.42 -21.67,-23.44 l 2.87,-34.13 c 29.66,2.46 52.97,27.27 52.97,57.57 0,31.93 -25.88,57.81 -57.81,57.81 -31.92,0 -57.81,-25.88 -57.81,-57.81 0,-22.7 13.11,-42.28 32.15,-51.74 l 15.2,30.64 c -7.78,3.87 -13.18,11.82 -13.18,21.1" /><path
         id="path104"
         style="fill:#e6ce62;fill-opacity:1;fill-rule:nonzero;stroke:none"
         d="m 1430.15,1385.25 -2.87,34.13 c -0.66,-0.06 -1.29,-0.2 -1.97,-0.2 -3.77,0 -7.29,0.97 -10.46,2.54 l -15.2,-30.64 c 7.74,-3.85 16.43,-6.07 25.66,-6.07 1.63,0 3.24,0.11 4.84,0.24" /><path
         id="path106"
         style="fill:#e6ce62;fill-opacity:1;fill-rule:nonzero;stroke:none"
         d="m 600.891,1349.4 c -7.176,0 -12.993,5.81 -12.993,12.99 0,7.17 5.817,12.99 12.993,12.99 7.172,0 12.992,-5.82 12.992,-12.99 0,-3.84 -1.695,-7.25 -4.34,-9.63 l 19.539,-21.75 c 8.621,7.75 14.145,18.87 14.145,31.38 0,23.38 -18.957,42.33 -42.336,42.33 -23.383,0 -42.336,-18.95 -42.336,-42.33 0,-23.38 18.953,-42.34 42.336,-42.34 4.828,0 9.386,0.98 13.711,2.47 l -9.504,27.63 c -1.328,-0.45 -2.727,-0.75 -4.207,-0.75" /><path
         id="path108"
         style="fill:#e6ce62;fill-opacity:1;fill-rule:nonzero;stroke:none"
         d="m 609.543,1352.76 c -1.281,-1.15 -2.781,-2.03 -4.445,-2.61 l 9.504,-27.63 c 5.414,1.87 10.308,4.74 14.48,8.49 l -19.539,21.75" /><path
         id="path110"
         style="fill:#e6ce62;fill-opacity:1;fill-rule:nonzero;stroke:none"
         d="m 1676.66,1404.72 c -23.38,0 -42.33,-18.95 -42.33,-42.33 0,-12.51 5.52,-23.63 14.14,-31.38 l 19.54,21.75 c -2.64,2.38 -4.34,5.79 -4.34,9.63 0,7.17 5.82,12.99 12.99,12.99 7.18,0 12.99,-5.82 12.99,-12.99 0,-7.18 -5.81,-12.99 -12.99,-12.99 -1.48,0 -2.88,0.3 -4.21,0.75 l -9.5,-27.63 c 4.32,-1.49 8.89,-2.47 13.71,-2.47 23.38,0 42.34,18.96 42.34,42.34 0,23.38 -18.96,42.33 -42.34,42.33" /><path
         id="path112"
         style="fill:#e6ce62;fill-opacity:1;fill-rule:nonzero;stroke:none"
         d="m 1668.01,1352.76 -19.54,-21.75 c 4.17,-3.75 9.06,-6.62 14.48,-8.49 l 9.5,27.63 c -1.66,0.58 -3.16,1.46 -4.44,2.61" /><path
         id="path114"
         style="fill:#e6ce62;fill-opacity:1;fill-rule:nonzero;stroke:none"
         d="m 2236.25,1355.54 23.79,90.41 64.24,-67.55 -32.12,-66.36 z m 235.51,-185.82 c -101.26,28.45 -145.36,133.24 -145.36,133.24 l 31.03,83.29 -112.69,124.13 -40.83,-169.86 68.6,-52.26 c 13.06,-111.06 -37.57,-173.12 -37.57,-173.12 143.73,-55.53 236.82,54.58 236.82,54.58" /><path
         id="path116"
         style="fill:#e6ce62;fill-opacity:1;fill-rule:nonzero;stroke:none"
         d="m 3112.95,1357.92 -41.63,-118.96 -21.42,73.08 z m -132.04,-333.08 h -86.84 l 5.95,22.6 c 0,0 91.6,16.66 115.39,69 z m -128.47,0 c -7.23,0 -13.09,5.86 -13.09,13.09 0,7.22 5.86,13.08 13.09,13.08 7.23,0 13.08,-5.86 13.08,-13.08 0,-7.23 -5.85,-13.09 -13.08,-13.09 z m -44.01,0 c -7.23,0 -13.09,5.86 -13.09,13.09 0,7.22 5.86,13.08 13.09,13.08 7.22,0 13.08,-5.86 13.08,-13.08 0,-7.23 -5.86,-13.09 -13.08,-13.09 z m -44.02,0 c -7.23,0 -13.08,5.86 -13.08,13.09 0,7.22 5.85,13.08 13.08,13.08 7.23,0 13.09,-5.86 13.09,-13.08 0,-7.23 -5.86,-13.09 -13.09,-13.09 z m -58.15,0 H 2424.2 l -7.14,27.36 c 127.28,38.07 148.17,155.83 148.17,155.83 0,0 20.89,-117.76 148.17,-155.83 z m -340.35,0 c -7.23,0 -13.08,5.86 -13.08,13.09 0,7.22 5.85,13.08 13.08,13.08 7.23,0 13.09,-5.86 13.09,-13.08 0,-7.23 -5.86,-13.09 -13.09,-13.09 z m -44.01,0 c -7.23,0 -13.09,5.86 -13.09,13.09 0,7.22 5.86,13.08 13.09,13.08 7.22,0 13.08,-5.86 13.08,-13.08 0,-7.23 -5.86,-13.09 -13.08,-13.09 z m -44.02,0 c -7.22,0 -13.08,5.86 -13.08,13.09 0,7.22 5.86,13.08 13.08,13.08 7.23,0 13.09,-5.86 13.09,-13.08 0,-7.23 -5.86,-13.09 -13.09,-13.09 z m -128.47,0 -34.5,91.6 c 23.8,-52.34 115.39,-69 115.39,-69 l 5.95,-22.6 z m 354.49,447.28 61.33,92.78 61.33,-92.78 c 0,0 -44.15,-16.66 -61.33,-61.86 -17.18,45.2 -61.33,61.86 -61.33,61.86 z m -444.89,-233.16 -41.64,118.96 63.05,-45.88 z m 984.59,-13.85 c -26.13,-78.4 -120.86,-150.26 -244.99,-150.26 -124.12,0 -210.14,104.37 -210.14,243.9 0,111.34 83.84,147.58 83.84,147.58 l -107.08,161.64 -107.08,-161.64 c 0,0 83.84,-36.24 83.84,-147.58 0,-139.53 -86.02,-243.9 -210.14,-243.9 -124.13,0 -218.85,71.86 -244.99,150.26 l 25.05,93.64 -132.84,100.26 148.08,-413.38 h 876.16 l 148.08,413.38 -132.84,-100.26 25.05,-93.64" /><path
         id="path118"
         style="fill:#e6ce62;fill-opacity:1;fill-rule:nonzero;stroke:none"
         d="m 2836.97,1312.04 -32.11,66.36 64.23,67.55 23.79,-90.41 z m 89.58,28.48 -40.83,169.86 -112.69,-124.13 31.03,-83.29 c 0,0 -44.1,-104.79 -145.36,-133.24 0,0 93.09,-110.11 236.82,-54.58 0,0 -50.63,62.06 -37.57,173.12 l 68.6,52.26" /><path
         id="path120"
         style="fill:#e6ce62;fill-opacity:1;fill-rule:nonzero;stroke:none"
         d="m 2148.26,965.219 h 833.94 v -11.75 h -833.94 z m -50.22,-28.797 h 934.38 c -30.13,12.699 -28.55,52 -28.55,52 h -877.28 c 0,0 1.59,-39.301 -28.55,-52" /><path
         id="path122"
         style="fill:#e6ce62;fill-opacity:1;fill-rule:nonzero;stroke:none"
         d="m 2114.69,896.301 h 11.08 V 852.43 h -11.08 z m 25.25,0 h 11.09 V 852.43 h -11.09 z m 25.25,0 h 11.09 V 852.43 h -11.09 z m 25.26,0 h 11.09 V 852.43 h -11.09 z m 25.25,0 h 11.09 V 852.43 h -11.09 z m 25.26,0 h 11.08 V 852.43 h -11.08 z m 25.25,0 h 11.09 V 852.43 h -11.09 z m 25.26,0 h 11.08 V 852.43 h -11.08 z m 25.25,0 h 11.09 V 852.43 h -11.09 z m 25.25,0 h 11.09 V 852.43 h -11.09 z m 25.26,0 h 11.09 V 852.43 h -11.09 z m 25.25,0 h 11.09 V 852.43 h -11.09 z m 25.26,0 h 11.08 V 852.43 h -11.08 z m 25.25,0 h 11.09 V 852.43 h -11.09 z m 25.26,0 h 11.08 V 852.43 h -11.08 z m 25.25,0 h 11.09 V 852.43 h -11.09 z m 25.25,0 h 11.09 V 852.43 h -11.09 z m 24.54,0 h 43.88 V 852.43 h -43.88 z m 57.33,0 h 11.09 V 852.43 h -11.09 z m 25.25,0 h 11.09 V 852.43 h -11.09 z m 25.26,0 h 11.09 V 852.43 h -11.09 z m 25.25,0 h 11.09 V 852.43 h -11.09 z m 25.26,0 h 11.08 V 852.43 h -11.08 z m 25.25,0 h 11.09 V 852.43 h -11.09 z m 25.26,0 h 11.08 V 852.43 h -11.08 z m 25.25,0 h 11.09 V 852.43 h -11.09 z m 25.25,0 h 11.09 V 852.43 h -11.09 z m 25.26,0 h 11.08 V 852.43 h -11.08 z m 25.25,0 h 11.09 V 852.43 h -11.09 z m 25.26,0 h 11.08 V 852.43 h -11.08 z m 25.25,0 h 11.09 V 852.43 h -11.09 z m 25.25,0 h 11.09 V 852.43 h -11.09 z m 25.26,0 h 11.09 V 852.43 h -11.09 z m 25.25,0 h 11.09 V 852.43 h -11.09 z m 25.26,0 h 11.08 V 852.43 h -11.08 z m -906.65,-66.539 h 934.38 v 89.207 h -934.38 v -89.207" /><path
         id="path124"
         style="fill:#e6ce62;fill-opacity:1;fill-rule:nonzero;stroke:none"
         d="m 3031.94,812.711 h -933.42 c -7.63,0 -13.87,-6.25 -13.87,-13.871 v -2.399 c 0,-7.632 6.24,-13.871 13.87,-13.871 h 933.42 c 7.63,0 13.87,6.239 13.87,13.871 v 2.399 c 0,7.621 -6.24,13.871 -13.87,13.871" /><path
         id="path126"
         style="fill:#e6ce62;fill-opacity:1;fill-rule:nonzero;stroke:none"
         d="m 3824.34,1234.53 c -33.85,-24.27 -15.33,-51.73 -15.33,-51.73 -32.57,20.43 -51.1,-8.31 -51.1,-8.31 26.83,-29.37 51.1,-10.85 51.1,-10.85 -2.56,-53.65 -39.6,-58.12 -39.6,-58.12 0,0 12.19,-26.19 55.56,-26.19 43.38,0 56.85,22.35 56.85,22.35 -52.37,5.12 -49.82,61.96 -49.82,61.96 27.44,-21.67 50.46,6.38 50.46,6.38 -14.69,27.47 -47.9,14.69 -47.9,14.69 17.88,23.63 -10.22,49.82 -10.22,49.82" /><path
         id="path128"
         style="fill:#e6ce62;fill-opacity:1;fill-rule:nonzero;stroke:none"
         d="m 3579.34,1234.53 c -33.85,-24.27 -15.33,-51.73 -15.33,-51.73 -32.57,20.43 -51.1,-8.31 -51.1,-8.31 26.83,-29.37 51.1,-10.85 51.1,-10.85 -2.56,-53.65 -39.6,-58.12 -39.6,-58.12 0,0 12.19,-30.27 55.57,-30.27 43.37,0 56.84,26.43 56.84,26.43 -52.37,5.12 -49.82,61.96 -49.82,61.96 27.44,-21.67 50.46,6.38 50.46,6.38 -14.69,27.47 -47.9,14.69 -47.9,14.69 17.88,23.63 -10.22,49.82 -10.22,49.82" /><path
         id="path130"
         style="fill:#e6ce62;fill-opacity:1;fill-rule:nonzero;stroke:none"
         d="m 4316.09,1023.05 h -159.91 v 16.21 c 64.8,1.08 79.95,115.63 79.95,115.63 0,0 15.16,-114.55 79.96,-115.63 z m -258.47,-1.24 h -184.69 v 18.72 c 74.84,1.25 92.34,133.56 92.34,133.56 0,0 17.51,-132.31 92.35,-133.56 z m -92.35,506.15 c 0,0 63.66,-76.15 0,-119.21 -63.65,43.06 0,119.21 0,119.21 z m -193.4,-504.91 h -159.9 v 16.21 c 64.79,1.08 79.95,115.63 79.95,115.63 0,0 15.15,-114.55 79.95,-115.63 z m 82.96,360.43 c 0,0 49.83,41.65 78.01,0 -28.18,-41.66 -78.01,0 -78.01,0 z m 221.55,0 c 0,0 -49.83,-41.66 -78.01,0 28.18,41.65 78.01,0 78.01,0 z m 390.48,-5.86 c -51.01,56.99 -124.77,-6.66 -124.77,-6.66 65.34,-76.9 127.27,-27.9 127.27,-27.9 2.72,-27.9 -4.77,-282.43 -117.74,-282.43 -112.97,0 -95.28,198.72 -95.28,198.72 43.56,-24.5 73.5,14.3 73.5,14.3 -37.43,41.51 -74.86,12.93 -74.86,12.93 32.58,44.97 -11.57,96.64 -11.57,96.64 -49,-47.64 -20.91,-96.64 -20.91,-96.64 -33.15,39.47 -82.53,-8.17 -82.53,-8.17 46.27,-55.81 81.66,-21.78 81.66,-21.78 0,0 19.06,-193.28 -121.13,-193.28 -140.2,0 -102.09,294.68 -102.09,294.68 53.08,-26.54 102.09,24.5 102.09,24.5 -51.05,53.09 -102.09,27.22 -102.09,27.22 59.89,74.19 -33.14,154.49 -33.14,154.49 0,0 -93.02,-80.3 -33.13,-154.49 0,0 -51.04,25.87 -102.09,-27.22 0,0 49,-51.04 102.09,-24.5 0,0 38.11,-294.68 -102.09,-294.68 -140.19,0 -121.13,193.28 -121.13,193.28 0,0 35.38,-34.03 81.66,21.78 0,0 -49.38,47.64 -82.54,8.17 0,0 28.1,49 -20.9,96.64 0,0 -44.15,-51.67 -11.57,-96.64 0,0 -37.43,28.58 -74.86,-12.93 0,0 29.94,-38.8 73.5,-14.3 0,0 17.69,-198.72 -95.28,-198.72 -112.97,0 -120.46,254.53 -117.74,282.43 0,0 61.93,-49 127.27,27.9 0,0 -73.77,63.65 -124.77,6.66 7.23,8.12 44.91,56.95 -27.68,123.33 0,0 0,-317.82 0,-381.79 0,-63.97 21.1,-122.5 21.1,-122.5 h 1016.33 c 0,0 21.1,58.53 21.1,122.5 0,63.97 0,381.79 0,381.79 -72.59,-66.38 -34.91,-115.21 -27.68,-123.33" /><path
         id="path132"
         style="fill:#e6ce62;fill-opacity:1;fill-rule:nonzero;stroke:none"
         d="m 4106.21,1234.53 c 0,0 -28.1,-26.19 -10.22,-49.82 0,0 -33.21,12.78 -47.9,-14.69 0,0 23.02,-28.05 50.46,-6.38 0,0 2.55,-56.84 -49.82,-61.96 0,0 13.47,-22.35 56.84,-22.35 43.38,0 55.57,26.19 55.57,26.19 0,0 -37.05,4.47 -39.6,58.12 0,0 24.27,-18.52 51.09,10.85 0,0 -18.52,28.74 -51.09,8.31 0,0 18.52,27.46 -15.33,51.73" /><path
         id="path134"
         style="fill:#e6ce62;fill-opacity:1;fill-rule:nonzero;stroke:none"
         d="m 4351.21,1234.53 c 0,0 -28.1,-26.19 -10.22,-49.82 0,0 -33.21,12.78 -47.9,-14.69 0,0 23.02,-28.05 50.46,-6.38 0,0 2.55,-56.84 -49.82,-61.96 0,0 13.47,-26.43 56.84,-26.43 43.38,0 55.57,30.27 55.57,30.27 0,0 -37.05,4.47 -39.6,58.12 0,0 24.27,-18.52 51.09,10.85 0,0 -18.52,28.74 -51.09,8.31 0,0 18.52,27.46 -15.33,51.73" /><path
         id="path136"
         style="fill:#e6ce62;fill-opacity:1;fill-rule:nonzero;stroke:none"
         d="m 4444.65,924.039 c -8.27,0 -14.97,6.699 -14.97,14.973 0,8.269 6.7,14.968 14.97,14.968 8.27,0 14.97,-6.699 14.97,-14.968 0,-8.274 -6.7,-14.973 -14.97,-14.973 z m -56.58,0 c -8.27,0 -14.98,6.699 -14.98,14.973 0,8.269 6.71,14.968 14.98,14.968 8.27,0 14.97,-6.699 14.97,-14.968 0,-8.274 -6.7,-14.973 -14.97,-14.973 z m -56.59,0 c -8.27,0 -14.97,6.699 -14.97,14.973 0,8.269 6.7,14.968 14.97,14.968 8.27,0 14.97,-6.699 14.97,-14.968 0,-8.274 -6.7,-14.973 -14.97,-14.973 z m -56.59,0 c -8.26,0 -14.97,6.699 -14.97,14.973 0,8.269 6.71,14.968 14.97,14.968 8.27,0 14.98,-6.699 14.98,-14.968 0,-8.274 -6.71,-14.973 -14.98,-14.973 z m -56.58,0 c -8.27,0 -14.97,6.699 -14.97,14.973 0,8.269 6.7,14.968 14.97,14.968 8.27,0 14.97,-6.699 14.97,-14.968 0,-8.274 -6.7,-14.973 -14.97,-14.973 z m -56.58,0 c -8.27,0 -14.98,6.699 -14.98,14.973 0,8.269 6.71,14.968 14.98,14.968 8.26,0 14.97,-6.699 14.97,-14.968 0,-8.274 -6.71,-14.973 -14.97,-14.973 z m -56.59,0 c -8.27,0 -14.97,6.699 -14.97,14.973 0,8.269 6.7,14.968 14.97,14.968 8.27,0 14.97,-6.699 14.97,-14.968 0,-8.274 -6.7,-14.973 -14.97,-14.973 z m -56.59,0 c -8.26,0 -14.97,6.699 -14.97,14.973 0,8.269 6.71,14.968 14.97,14.968 8.27,0 14.98,-6.699 14.98,-14.968 0,-8.274 -6.71,-14.973 -14.98,-14.973 z m -56.58,0 c -8.27,0 -14.97,6.699 -14.97,14.973 0,8.269 6.7,14.968 14.97,14.968 8.27,0 14.97,-6.699 14.97,-14.968 0,-8.274 -6.7,-14.973 -14.97,-14.973 z m -56.59,0 c -8.26,0 -14.97,6.699 -14.97,14.973 0,8.269 6.71,14.968 14.97,14.968 8.27,0 14.98,-6.699 14.98,-14.968 0,-8.274 -6.71,-14.973 -14.98,-14.973 z m -56.58,0 c -8.27,0 -14.97,6.699 -14.97,14.973 0,8.269 6.7,14.968 14.97,14.968 8.27,0 14.97,-6.699 14.97,-14.968 0,-8.274 -6.7,-14.973 -14.97,-14.973 z m -56.59,0 c -8.26,0 -14.97,6.699 -14.97,14.973 0,8.269 6.71,14.968 14.97,14.968 8.27,0 14.98,-6.699 14.98,-14.968 0,-8.274 -6.71,-14.973 -14.98,-14.973 z m -56.58,0 c -8.27,0 -14.97,6.699 -14.97,14.973 0,8.269 6.7,14.968 14.97,14.968 8.27,0 14.97,-6.699 14.97,-14.968 0,-8.274 -6.7,-14.973 -14.97,-14.973 z m -56.59,0 c -8.27,0 -14.97,6.699 -14.97,14.973 0,8.269 6.7,14.968 14.97,14.968 8.27,0 14.98,-6.699 14.98,-14.968 0,-8.274 -6.71,-14.973 -14.98,-14.973 z m -56.58,0 c -8.27,0 -14.97,6.699 -14.97,14.973 0,8.269 6.7,14.968 14.97,14.968 8.27,0 14.97,-6.699 14.97,-14.968 0,-8.274 -6.7,-14.973 -14.97,-14.973 z m -56.59,0 c -8.27,0 -14.97,6.699 -14.97,14.973 0,8.269 6.7,14.968 14.97,14.968 8.27,0 14.98,-6.699 14.98,-14.968 0,-8.274 -6.71,-14.973 -14.98,-14.973 z m -56.58,0 c -8.27,0 -14.98,6.699 -14.98,14.973 0,8.269 6.71,14.968 14.98,14.968 8.27,0 14.97,-6.699 14.97,-14.968 0,-8.274 -6.7,-14.973 -14.97,-14.973 z m -56.59,0 c -8.27,0 -14.97,6.699 -14.97,14.973 0,8.269 6.7,14.968 14.97,14.968 8.27,0 14.98,-6.699 14.98,-14.968 0,-8.274 -6.71,-14.973 -14.98,-14.973 z m 975.34,56.582 h -985.53 c -20.07,0 -36.5,-16.43 -36.5,-36.5 v -10.223 c 0,-20.066 16.43,-36.5 36.5,-36.5 h 985.53 c 20.07,0 36.5,16.434 36.5,36.5 v 10.223 c 0,20.07 -16.43,36.5 -36.5,36.5" /><path
         id="path138"
         style="fill:#e6ce62;fill-opacity:1;fill-rule:nonzero;stroke:none"
         d="m 4456.17,882.43 h -981.79 c 0,0 -3.51,-34.95 -38.37,-53.258 h 1058.53 c -34.86,18.308 -38.37,53.258 -38.37,53.258" /><path
         id="path140"
         style="fill:#e6ce62;fill-opacity:1;fill-rule:nonzero;stroke:none"
         d="m 3436.01,782.57 h 1058.53 v 31.6211 H 3436.01 Z" /><path
         id="path142"
         style="fill:#e6ce62;fill-opacity:1;fill-rule:nonzero;stroke:none"
         d="m 3965.27,1428.72 c 37,25.03 0,69.28 0,69.28 0,0 -36.99,-44.25 0,-69.28" /><path
         id="path144"
         style="fill:#e6ce62;fill-opacity:1;fill-rule:nonzero;stroke:none"
         d="m 4058.09,1383.48 c 0,0 -26.46,22.12 -41.43,0 14.97,-22.13 41.43,0 41.43,0" /><path
         id="path146"
         style="fill:#e6ce62;fill-opacity:1;fill-rule:nonzero;stroke:none"
         d="m 3872.93,1383.48 c 0,0 26.71,-22.33 41.81,0 -15.1,22.33 -41.81,0 -41.81,0" /><path
         id="path148"
         style="fill:#e6ce62;fill-opacity:1;fill-rule:nonzero;stroke:none"
         d="m 1537.92,3391.31 c -11.2,0 -20.28,9.07 -20.28,20.27 0,11.2 9.08,20.28 20.28,20.28 11.2,0 20.28,-9.08 20.28,-20.28 0,-11.2 -9.08,-20.27 -20.28,-20.27 z m -122.54,0 c -13.55,0 -24.54,10.99 -24.54,24.54 0,13.56 10.99,24.54 24.54,24.54 13.56,0 24.55,-10.98 24.55,-24.54 0,-13.55 -10.99,-24.54 -24.55,-24.54 z m -124.18,0 c -16.01,0 -29,12.98 -29,28.99 0,16.02 12.99,29 29,29 16.01,0 29,-12.98 29,-29 0,-16.01 -12.99,-28.99 -29,-28.99 z m -152.43,0.07 -53.47,53.47 53.47,53.47 53.48,-53.47 z m -152.418,-0.07 c -16.016,0 -28.997,12.98 -28.997,28.99 0,16.02 12.981,29 28.997,29 16.008,0 28.998,-12.98 28.998,-29 0,-16.01 -12.99,-28.99 -28.998,-28.99 z m -124.184,0 c -13.555,0 -24.547,10.99 -24.547,24.54 0,13.56 10.992,24.54 24.547,24.54 13.555,0 24.543,-10.98 24.543,-24.54 0,-13.55 -10.988,-24.54 -24.543,-24.54 z m -122.539,0 c -11.199,0 -20.277,9.07 -20.277,20.27 0,11.2 9.078,20.28 20.277,20.28 11.199,0 20.277,-9.08 20.277,-20.28 0,-11.2 -9.078,-20.27 -20.277,-20.27 z m 963.141,325.56 c 0,0 -48.84,-239.46 -163.84,-215.83 -115.01,23.63 -50.41,282 -50.41,282 l 51.98,69.32 -51.98,108.7 -81.93,-88.22 37.81,-85.08 c -14.18,-108.7 -59.86,-263.09 -163.84,-263.09 -103.97,0 -140.21,244.19 -102.4,275.7 37.81,31.5 72.47,-25.21 72.47,-25.21 l 77.19,55.14 -74.04,74.04 c 0,0 -31.51,-44.11 -61.44,-18.9 -29.93,25.2 12.6,85.07 12.6,85.07 l -66.17,102.4 -66.16,-102.4 c 0,0 42.53,-59.87 12.6,-85.07 -29.93,-25.21 -61.44,18.9 -61.44,18.9 l -74.043,-74.04 77.193,-55.14 c 0,0 34.66,56.71 72.47,25.21 37.81,-31.51 1.58,-275.7 -102.402,-275.7 -103.976,0 -149.664,154.39 -163.84,263.09 l 37.809,85.08 -81.922,88.22 -51.988,-108.7 51.988,-69.32 c 0,0 64.594,-258.37 -50.414,-282 -115.004,-23.63 -163.84,215.83 -163.84,215.83 l 33.082,78.77 -102.398,78.77 130.758,-518.1 H 1641.33 l 130.76,518.1 -102.4,-78.77 33.08,-78.77" /><path
         id="path150"
         style="fill:#e6ce62;fill-opacity:1;fill-rule:nonzero;stroke:none"
         d="m 1643.84,3298.96 -12.91,-7.46 -12.93,7.46 v 14.92 l 12.93,7.46 12.91,-7.46 z m -54.68,0 -12.92,-7.46 -12.92,7.46 v 14.92 l 12.92,7.46 12.92,-7.46 z m -54.68,0 -12.92,-7.46 -12.92,7.46 v 14.92 l 12.92,7.46 12.92,-7.46 z m -54.69,0 -12.92,-7.46 -12.91,7.46 v 14.92 l 12.91,7.46 12.92,-7.46 z m -54.68,0 -12.92,-7.46 -12.92,7.46 v 14.92 l 12.92,7.46 12.92,-7.46 z m -54.68,0 -12.92,-7.46 -12.92,7.46 v 14.92 l 12.92,7.46 12.92,-7.46 z m -54.69,0 -12.91,-7.46 -12.92,7.46 v 14.92 l 12.92,7.46 12.91,-7.46 z m -54.68,0 -12.92,-7.46 -12.92,7.46 v 14.92 l 12.92,7.46 12.92,-7.46 z m -54.68,0 -12.92,-7.46 -12.92,7.46 v 14.92 l 12.92,7.46 12.92,-7.46 z m -54.68,0 -12.93,-7.46 -12.91,7.46 v 14.92 l 12.91,7.46 12.93,-7.46 z m -54.69,0 -12.92,-7.46 -12.92,7.46 v 14.92 l 12.92,7.46 12.92,-7.46 z m -54.68,0 -12.92,-7.46 -12.92,7.46 v 14.92 l 12.92,7.46 12.92,-7.46 z m -54.685,0 -12.918,-7.46 -12.922,7.46 v 14.92 l 12.922,7.46 12.918,-7.46 z m -54.68,0 -12.922,-7.46 -12.918,7.46 v 14.92 l 12.918,7.46 12.922,-7.46 z m -54.684,0 -12.922,-7.46 -12.918,7.46 v 14.92 l 12.918,7.46 12.922,-7.46 z m -54.683,0 -12.922,-7.46 -12.918,7.46 v 14.92 l 12.918,7.46 12.922,-7.46 z m -54.688,0 -12.918,-7.46 -12.922,7.46 v 14.92 l 12.922,7.46 12.918,-7.46 z m -54.68,0 -12.921,-7.46 -12.918,7.46 v 14.92 l 12.918,7.46 12.921,-7.46 z m -54.683,0 -12.922,-7.46 -12.918,7.46 v 14.92 l 12.918,7.46 12.922,-7.46 z m 988.533,34.56 H 629.469 c -10.442,0 -18.981,-8.54 -18.981,-18.98 v -16.65 c 0,-10.44 8.539,-18.98 18.981,-18.98 H 1648.08 c 10.44,0 18.98,8.54 18.98,18.98 v 16.65 c 0,10.44 -8.54,18.98 -18.98,18.98" /><path
         id="path152"
         style="fill:#e6ce62;fill-opacity:1;fill-rule:nonzero;stroke:none"
         d="m 1643.84,3082.4 -12.91,-7.46 -12.93,7.46 v 14.92 l 12.93,7.46 12.91,-7.46 z m -54.68,0 -12.92,-7.46 -12.92,7.46 v 14.92 l 12.92,7.46 12.92,-7.46 z m -54.68,0 -12.92,-7.46 -12.92,7.46 v 14.92 l 12.92,7.46 12.92,-7.46 z m -54.69,0 -12.92,-7.46 -12.91,7.46 v 14.92 l 12.91,7.46 12.92,-7.46 z m -54.68,0 -12.92,-7.46 -12.92,7.46 v 14.92 l 12.92,7.46 12.92,-7.46 z m -54.68,0 -12.92,-7.46 -12.92,7.46 v 14.92 l 12.92,7.46 12.92,-7.46 z m -54.69,0 -12.91,-7.46 -12.92,7.46 v 14.92 l 12.92,7.46 12.91,-7.46 z m -54.68,0 -12.92,-7.46 -12.92,7.46 v 14.92 l 12.92,7.46 12.92,-7.46 z m -54.68,0 -12.92,-7.46 -12.92,7.46 v 14.92 l 12.92,7.46 12.92,-7.46 z m -54.68,0 -12.93,-7.46 -12.91,7.46 v 14.92 l 12.91,7.46 12.93,-7.46 z m -54.69,0 -12.92,-7.46 -12.92,7.46 v 14.92 l 12.92,7.46 12.92,-7.46 z m -54.68,0 -12.92,-7.46 -12.92,7.46 v 14.92 l 12.92,7.46 12.92,-7.46 z m -54.685,0 -12.918,-7.46 -12.922,7.46 v 14.92 l 12.922,7.46 12.918,-7.46 z m -54.68,0 -12.922,-7.46 -12.918,7.46 v 14.92 l 12.918,7.46 12.922,-7.46 z m -54.684,0 -12.922,-7.46 -12.918,7.46 v 14.92 l 12.918,7.46 12.922,-7.46 z m -54.683,0 -12.922,-7.46 -12.918,7.46 v 14.92 l 12.918,7.46 12.922,-7.46 z m -54.688,0 -12.918,-7.46 -12.922,7.46 v 14.92 l 12.922,7.46 12.918,-7.46 z m -54.68,0 -12.921,-7.46 -12.918,7.46 v 14.92 l 12.918,7.46 12.921,-7.46 z m -54.683,0 -12.922,-7.46 -12.918,7.46 v 14.92 l 12.918,7.46 12.922,-7.46 z m 988.533,34.77 H 629.469 c -10.442,0 -18.981,-8.54 -18.981,-18.98 v -16.66 c 0,-10.44 8.539,-18.98 18.981,-18.98 H 1648.08 c 10.44,0 18.98,8.54 18.98,18.98 v 16.66 c 0,10.44 -8.54,18.98 -18.98,18.98" /><path
         id="path154"
         style="fill:#e6ce62;fill-opacity:1;fill-rule:nonzero;stroke:none"
         d="m 1614.55,3163.38 c 0,-4.33 -3.55,-7.88 -7.88,-7.88 -4.33,0 -7.88,3.55 -7.88,7.88 v 61.44 c 0,4.33 3.55,7.88 7.88,7.88 4.33,0 7.88,-3.55 7.88,-7.88 z m -42.54,0 c 0,-4.33 -3.54,-7.88 -7.88,-7.88 -4.33,0 -7.87,3.55 -7.87,7.88 v 61.44 c 0,4.33 3.54,7.88 7.87,7.88 4.34,0 7.88,-3.55 7.88,-7.88 z m -42.53,0 c 0,-4.33 -3.55,-7.88 -7.88,-7.88 -4.34,0 -7.88,3.55 -7.88,7.88 v 61.44 c 0,4.33 3.54,7.88 7.88,7.88 4.33,0 7.88,-3.55 7.88,-7.88 z m -42.54,0 c 0,-4.33 -3.54,-7.88 -7.88,-7.88 -4.33,0 -7.88,3.55 -7.88,7.88 v 61.44 c 0,4.33 3.55,7.88 7.88,7.88 4.34,0 7.88,-3.55 7.88,-7.88 z m -42.54,0 c 0,-4.33 -3.54,-7.88 -7.87,-7.88 -4.34,0 -7.88,3.55 -7.88,7.88 v 61.44 c 0,4.33 3.54,7.88 7.88,7.88 4.33,0 7.87,-3.55 7.87,-7.88 z m -42.53,0 c 0,-4.33 -3.55,-7.88 -7.88,-7.88 -4.33,0 -7.88,3.55 -7.88,7.88 v 61.44 c 0,4.33 3.55,7.88 7.88,7.88 4.33,0 7.88,-3.55 7.88,-7.88 z m -42.54,0 c 0,-4.33 -3.54,-7.88 -7.87,-7.88 -4.34,0 -7.88,3.55 -7.88,7.88 v 61.44 c 0,4.33 3.54,7.88 7.88,7.88 4.33,0 7.87,-3.55 7.87,-7.88 z m -42.54,0 c 0,-4.33 -3.54,-7.88 -7.87,-7.88 -4.33,0 -7.88,3.55 -7.88,7.88 v 61.44 c 0,4.33 3.55,7.88 7.88,7.88 4.33,0 7.87,-3.55 7.87,-7.88 z m -42.53,0 c 0,-4.33 -3.55,-7.88 -7.88,-7.88 -4.33,0 -7.87,3.55 -7.87,7.88 v 61.44 c 0,4.33 3.54,7.88 7.87,7.88 4.33,0 7.88,-3.55 7.88,-7.88 z m -42.54,0 c 0,-4.33 -3.54,-7.88 -7.87,-7.88 -4.33,0 -7.88,3.55 -7.88,7.88 v 61.44 c 0,4.33 3.55,7.88 7.88,7.88 4.33,0 7.87,-3.55 7.87,-7.88 z m -42.53,0 c 0,-4.33 -3.55,-7.88 -7.88,-7.88 -4.33,0 -7.88,3.55 -7.88,7.88 v 61.44 c 0,4.33 3.55,7.88 7.88,7.88 4.33,0 7.88,-3.55 7.88,-7.88 z m -42.54,0 c 0,-4.33 -3.54,-7.88 -7.88,-7.88 -4.33,0 -7.87,3.55 -7.87,7.88 v 61.44 c 0,4.33 3.54,7.88 7.87,7.88 4.34,0 7.88,-3.55 7.88,-7.88 z m -42.53,0 c 0,-4.33 -3.55,-7.88 -7.88,-7.88 -4.33,0 -7.88,3.55 -7.88,7.88 v 61.44 c 0,4.33 3.55,7.88 7.88,7.88 4.33,0 7.88,-3.55 7.88,-7.88 z m -42.54,0 c 0,-4.33 -3.54,-7.88 -7.88,-7.88 -4.33,0 -7.87,3.55 -7.87,7.88 v 61.44 c 0,4.33 3.54,7.88 7.87,7.88 4.34,0 7.88,-3.55 7.88,-7.88 z m -42.54,0 c 0,-4.33 -3.54,-7.88 -7.87,-7.88 -4.34,0 -7.88,3.55 -7.88,7.88 v 61.44 c 0,4.33 3.54,7.88 7.88,7.88 4.33,0 7.87,-3.55 7.87,-7.88 z m -42.532,0 c 0,-4.33 -3.543,-7.88 -7.875,-7.88 -4.336,0 -7.879,3.55 -7.879,7.88 v 61.44 c 0,4.33 3.543,7.88 7.879,7.88 4.332,0 7.875,-3.55 7.875,-7.88 z m -42.535,0 c 0,-4.33 -3.543,-7.88 -7.875,-7.88 -4.332,0 -7.879,3.55 -7.879,7.88 v 61.44 c 0,4.33 3.547,7.88 7.879,7.88 4.332,0 7.875,-3.55 7.875,-7.88 z m -42.535,0 c 0,-4.33 -3.547,-7.88 -7.879,-7.88 -4.332,0 -7.875,3.55 -7.875,7.88 v 61.44 c 0,4.33 3.543,7.88 7.875,7.88 4.332,0 7.879,-3.55 7.879,-7.88 z m -42.536,0 c 0,-4.33 -3.547,-7.88 -7.879,-7.88 -4.332,0 -7.875,3.55 -7.875,7.88 v 61.44 c 0,4.33 3.543,7.88 7.875,7.88 4.332,0 7.879,-3.55 7.879,-7.88 z m -42.539,0 c 0,-4.33 -3.543,-7.88 -7.875,-7.88 -4.332,0 -7.879,3.55 -7.879,7.88 v 61.44 c 0,4.33 3.547,7.88 7.879,7.88 4.332,0 7.875,-3.55 7.875,-7.88 z m -42.535,0 c 0,-4.33 -3.543,-7.88 -7.875,-7.88 -4.332,0 -7.879,3.55 -7.879,7.88 v 61.44 c 0,4.33 3.547,7.88 7.879,7.88 4.332,0 7.875,-3.55 7.875,-7.88 z m -42.535,0 c 0,-4.33 -3.543,-7.88 -7.875,-7.88 -4.336,0 -7.879,3.55 -7.879,7.88 v 61.44 c 0,4.33 3.543,7.88 7.879,7.88 4.332,0 7.875,-3.55 7.875,-7.88 z m -42.535,0 c 0,-4.33 -3.547,-7.88 -7.879,-7.88 -4.328,0 -7.875,3.55 -7.875,7.88 v 61.44 c 0,4.33 3.547,7.88 7.875,7.88 4.332,0 7.879,-3.55 7.879,-7.88 z m -34.66,90.32 V 3138.17 H 1633.45 V 3253.7 H 644.098" /><path
         id="path156"
         style="fill:#e6ce62;fill-opacity:1;fill-rule:nonzero;stroke:none"
         d="m 2785.97,3381.02 c -11.7,0 -21.18,9.48 -21.18,21.17 0,11.7 9.48,21.19 21.18,21.19 11.7,0 21.18,-9.49 21.18,-21.19 0,-11.69 -9.48,-21.17 -21.18,-21.17 z m -97.75,-6.52 c -15.3,0 -27.7,12.4 -27.7,27.69 0,15.3 12.4,27.7 27.7,27.7 15.29,0 27.69,-12.4 27.69,-27.7 0,-15.29 -12.4,-27.69 -27.69,-27.69 z m -122.99,-9.78 c -20.69,0 -37.47,16.78 -37.47,37.47 0,20.7 16.78,37.48 37.47,37.48 20.7,0 37.47,-16.78 37.47,-37.48 0,-20.69 -16.77,-37.47 -37.47,-37.47 z m -2.56,395.13 v 0.05 h 1.01 c 0.53,0.01 1.01,0.07 1.55,0.07 v -0.07 0.07 c 0.54,0 1.02,-0.06 1.55,-0.07 h 2.12 v -0.1 c 27.15,-1.7 36.9,-23.74 -3.67,-116.98 v 0 c -41.11,94.48 -30.55,115.85 -2.56,117.03 z M 2442.25,3374.5 c -15.3,0 -27.7,12.4 -27.7,27.69 0,15.3 12.4,27.7 27.7,27.7 15.29,0 27.69,-12.4 27.69,-27.7 0,-15.29 -12.4,-27.69 -27.69,-27.69 z m -97.76,6.52 c -11.7,0 -21.18,9.48 -21.18,21.17 0,11.7 9.48,21.19 21.18,21.19 11.7,0 21.18,-9.49 21.18,-21.19 0,-11.69 -9.48,-21.17 -21.18,-21.17 z m 766.45,298.8 c -10.46,101.68 -82.23,98.35 -82.23,98.35 52.33,-56.68 53.82,-168.36 -8.97,-290.04 -62.79,-121.68 -168.44,-56.09 -165.96,45.01 2.99,121.68 106.15,151.68 106.15,151.68 -57.45,46.87 -91.26,-2.9 -95.28,-9.33 35.24,51.68 11.56,129.35 11.56,129.35 -52.33,-43.34 -50.84,-121.69 -50.84,-121.69 -11.95,88.35 -65.78,71.68 -65.78,71.68 53.83,-60.01 28.41,-277.41 -71.76,-277.41 -92.7,0 -107.65,140.73 -68.78,224.07 38.88,83.34 -35.88,96.68 -35.88,96.68 26.91,80.01 143.53,103.34 143.53,103.34 -86.72,76.68 -143.53,0 -143.53,0 47.84,83.35 -17.94,173.36 -17.94,173.36 0,0 -65.78,-90.01 -17.94,-173.36 0,0 -56.81,76.68 -143.53,0 0,0 116.62,-23.33 143.53,-103.34 0,0 -74.75,-13.34 -35.88,-96.68 38.87,-83.34 23.92,-224.07 -68.78,-224.07 -100.17,0 -125.58,217.4 -71.76,277.41 0,0 -53.82,16.67 -65.79,-71.68 0,0 1.5,78.35 -50.83,121.69 0,0 -23.68,-77.67 11.56,-129.35 -4.02,6.43 -37.83,56.2 -95.28,9.33 0,0 103.16,-30 106.15,-151.68 2.48,-101.1 -103.16,-166.69 -165.96,-45.01 -62.79,121.68 -61.3,233.36 -8.97,290.04 0,0 -71.76,3.33 -82.23,-98.35 0,0 -1.49,80.01 -89.7,101.68 0,0 143.53,-265.03 168.94,-443.39 h 932.94 c 25.42,178.36 168.94,443.39 168.94,443.39 -88.21,-21.67 -89.7,-101.68 -89.7,-101.68" /><path
         id="path158"
         style="fill:#e6ce62;fill-opacity:1;fill-rule:nonzero;stroke:none"
         d="m 3041.4,3281.42 -11.41,37.68 h -929.52 l -11.4,-37.68 h 952.33" /><path
         id="path160"
         style="fill:#e6ce62;fill-opacity:1;fill-rule:nonzero;stroke:none"
         d="m 2344.49,3226.6 23.56,-23.55 -23.56,-23.56 -23.55,23.56 z m 100.18,8.15 31.7,-31.7 -31.7,-31.71 -31.71,31.71 z m 120.56,11.84 43.55,-43.54 -43.55,-43.55 -43.54,43.55 z m 122.99,-11.84 31.7,-31.7 -31.7,-31.71 -31.71,31.71 z m 97.75,-8.15 23.56,-23.55 -23.56,-23.56 -23.55,23.56 z m -696.9,-85.09 h 952.33 v 123.07 h -952.33 v -123.07" /><path
         id="path162"
         style="fill:#e6ce62;fill-opacity:1;fill-rule:nonzero;stroke:none"
         d="m 3049.27,3081.13 h -11.14 v 27.37 h 11.14 z m -25.18,0 h -11.14 v 27.37 h 11.14 z m -25.18,0 h -11.14 v 27.37 h 11.14 z m -25.19,0 h -11.13 v 27.37 h 11.13 z m -25.18,0 h -11.14 v 27.37 h 11.14 z m -25.18,0 h -11.14 v 27.37 h 11.14 z m -25.19,0 h -11.13 v 27.37 h 11.13 z m -25.18,0 h -11.14 v 27.37 h 11.14 z m -25.18,0 h -11.14 v 27.37 h 11.14 z m -25.18,0 h -11.14 v 27.37 h 11.14 z m -25.19,0 h -11.13 v 27.37 h 11.13 z m -25.18,0 h -11.14 v 27.37 h 11.14 z m -25.18,0 h -11.14 v 27.37 h 11.14 z m -25.18,0 h -11.14 v 27.37 h 11.14 z m -25.19,0 h -11.13 v 27.37 h 11.13 z m -25.18,0 h -11.14 v 27.37 h 11.14 z m -25.18,0 h -11.14 v 27.37 h 11.14 z m -25.19,0 h -11.13 v 27.37 h 11.13 z m -25.18,0 h -11.14 v 27.37 h 11.14 z m -25.18,0 h -11.14 v 27.37 h 11.14 z m -25.18,0 h -11.14 v 27.37 h 11.14 z m -25.19,0 h -11.13 v 27.37 h 11.13 z m -25.18,0 h -11.14 v 27.37 h 11.14 z m -25.18,0 h -11.14 v 27.37 h 11.14 z m -25.19,0 h -11.13 v 27.37 h 11.13 z m -25.18,0 h -11.14 v 27.37 h 11.14 z m -25.18,0 h -11.14 v 27.37 h 11.14 z m -25.18,0 h -11.14 v 27.37 h 11.14 z m -25.19,0 h -11.13 v 27.37 h 11.13 z m -25.18,0 h -11.14 v 27.37 h 11.14 z m -25.18,0 h -11.14 v 27.37 h 11.14 z m -25.19,0 h -11.13 v 27.37 h 11.13 z m -25.18,0 h -11.14 v 27.37 h 11.14 z m -25.18,0 h -11.14 v 27.37 h 11.14 z m -25.18,0 h -11.14 v 27.37 h 11.14 z m -25.19,0 h -11.13 v 27.37 h 11.13 z m -25.18,0 h -11.14 v 27.37 h 11.14 z m -25.18,0 h -11.14 v 27.37 h 11.14 z m -25.18,0 h -11.14 v 27.37 h 11.14 z m 961.93,42.46 h -965.87 c -11.28,0 -20.51,-9.23 -20.51,-20.51 v -20.02 c 0,-11.28 9.23,-20.51 20.51,-20.51 h 965.87 c 11.28,0 20.51,9.23 20.51,20.51 v 20.02 c 0,11.28 -9.23,20.51 -20.51,20.51" /><path
         id="path164"
         style="fill:#e6ce62;fill-opacity:1;fill-rule:nonzero;stroke:none"
         d="m 4402.3,3315.88 c -8.27,0 -14.97,6.7 -14.97,14.97 0,8.26 6.7,14.96 14.97,14.96 8.26,0 14.96,-6.7 14.96,-14.96 0,-8.27 -6.7,-14.97 -14.96,-14.97 z m -77.43,0 c -8.26,0 -14.96,6.7 -14.96,14.97 0,8.26 6.7,14.96 14.96,14.96 8.27,0 14.97,-6.7 14.97,-14.96 0,-8.27 -6.7,-14.97 -14.97,-14.97 z m -77.42,0 c -8.26,0 -14.96,6.7 -14.96,14.97 0,8.26 6.7,14.96 14.96,14.96 8.27,0 14.97,-6.7 14.97,-14.96 0,-8.27 -6.7,-14.97 -14.97,-14.97 z m -48.3,163.67 c -20.48,-119.18 -176.6,-89.41 -176.6,5.28 0,57.12 0,177.02 0,263.24 23.99,14.43 40.65,39.72 43.12,69.12 97.88,-62.43 152.24,-228.41 133.48,-337.64 z m -29.12,-163.67 c -8.26,0 -14.96,6.7 -14.96,14.97 0,8.26 6.7,14.96 14.96,14.96 8.27,0 14.97,-6.7 14.97,-14.96 0,-8.27 -6.7,-14.97 -14.97,-14.97 z m -77.42,0 c -8.26,0 -14.96,6.7 -14.96,14.97 0,8.26 6.7,14.96 14.96,14.96 8.27,0 14.97,-6.7 14.97,-14.96 0,-8.27 -6.7,-14.97 -14.97,-14.97 z m -77.42,0 c -8.26,0 -14.97,6.7 -14.97,14.97 0,8.26 6.71,14.96 14.97,14.96 8.27,0 14.97,-6.7 14.97,-14.96 0,-8.27 -6.7,-14.97 -14.97,-14.97 z m -81.04,518.31 42.33,42.33 42.33,-42.33 -42.33,-42.33 z m 3.62,-518.31 c -8.26,0 -14.97,6.7 -14.97,14.97 0,8.26 6.71,14.96 14.97,14.96 8.27,0 14.97,-6.7 14.97,-14.96 0,-8.27 -6.7,-14.97 -14.97,-14.97 z m -183.95,163.67 c -18.77,109.23 35.59,275.21 133.47,337.64 2.47,-29.4 19.14,-54.69 43.12,-69.12 0,-86.22 0,-206.12 0,-263.24 0,-94.69 -156.12,-124.46 -176.59,-5.28 z m 106.53,-163.67 c -8.27,0 -14.96,6.7 -14.96,14.97 0,8.26 6.69,14.96 14.96,14.96 8.27,0 14.97,-6.7 14.97,-14.96 0,-8.27 -6.7,-14.97 -14.97,-14.97 z m -77.42,0 c -8.27,0 -14.97,6.7 -14.97,14.97 0,8.26 6.7,14.96 14.97,14.96 8.26,0 14.97,-6.7 14.97,-14.96 0,-8.27 -6.71,-14.97 -14.97,-14.97 z m -77.42,0 c -8.27,0 -14.97,6.7 -14.97,14.97 0,8.26 6.7,14.96 14.97,14.96 8.26,0 14.97,-6.7 14.97,-14.96 0,-8.27 -6.71,-14.97 -14.97,-14.97 z m -77.42,0 c -8.27,0 -14.97,6.7 -14.97,14.97 0,8.26 6.7,14.96 14.97,14.96 8.26,0 14.96,-6.7 14.96,-14.96 0,-8.27 -6.7,-14.97 -14.96,-14.97 z m -77.42,0 c -8.27,0 -14.97,6.7 -14.97,14.97 0,8.26 6.7,14.96 14.97,14.96 8.26,0 14.96,-6.7 14.96,-14.96 0,-8.27 -6.7,-14.97 -14.96,-14.97 z m 853.23,392.25 c -102.38,99.17 -250.82,95.44 -250.82,95.44 235.46,-45.97 337.83,-353.29 240.58,-389.03 -97.26,-35.73 -135.65,130.44 -176.6,266.7 -29.31,97.53 -108.43,132.48 -151.05,144.47 -0.45,43.94 -32.52,80.2 -74.54,87.3 1.23,19.39 5.12,32.88 16.51,34.26 20.31,2.46 24.51,-22.1 24.51,-22.1 l 45.5,32.74 -44.81,44.21 c 0,0 -22.54,-29.87 -39.34,-10.23 -22.4,26.2 18.34,42.97 18.34,42.97 l -35.7,42.57 -35.7,-42.57 c 0,0 38.93,-20.59 16.52,-46.79 -16.8,-19.64 -37.52,14.05 -37.52,14.05 l -44.81,-44.21 45.51,-32.74 c 0,0 4.2,24.56 24.5,22.1 11.39,-1.38 15.29,-14.87 16.51,-34.26 -42.02,-7.1 -74.09,-43.36 -74.54,-87.3 -42.62,-11.99 -121.74,-46.94 -151.05,-144.47 -40.95,-136.26 -79.34,-302.43 -176.59,-266.7 -97.26,35.74 5.11,343.06 240.57,389.03 0,0 -148.44,3.73 -250.81,-95.44 -102.38,-99.17 -99.82,-245.67 -79.34,-315.74 20.47,-70.07 20.47,-98.86 20.47,-98.86 h 972.56 c 0,0 0,28.79 20.48,98.86 20.47,70.07 23.03,216.57 -79.34,315.74" /><path
         id="path166"
         style="fill:#e6ce62;fill-opacity:1;fill-rule:nonzero;stroke:none"
         d="m 3779.41,3607.68 c -10.24,-70.64 -20.48,-182.99 64.87,-182.99 54.78,0 61.82,48.63 61.82,84.46 0,18.34 0,69.17 0,114.46 -46.86,-2.63 -88.98,-7.73 -126.5,-14.56 -0.13,-0.86 -0.19,-1.37 -0.19,-1.37" /><path
         id="path168"
         style="fill:#e6ce62;fill-opacity:1;fill-rule:nonzero;stroke:none"
         d="m 3581.06,3431.09 c 53.74,0 95.4,110.81 110.4,156.85 -70.65,-21.4 -118.03,-47.79 -146.9,-67.81 -10.62,-43.66 1.99,-89.04 36.5,-89.04" /><path
         id="path170"
         style="fill:#e6ce62;fill-opacity:1;fill-rule:nonzero;stroke:none"
         d="m 4045.98,3509.15 c 0,-35.83 7.03,-84.46 61.82,-84.46 85.34,0 75.1,112.35 64.87,182.99 0,0 -0.06,0.51 -0.19,1.37 -37.52,6.83 -79.64,11.93 -126.5,14.56 0,-45.29 0,-96.12 0,-114.46" /><path
         id="path172"
         style="fill:#e6ce62;fill-opacity:1;fill-rule:nonzero;stroke:none"
         d="m 4371.02,3431.09 c 34.51,0 47.12,45.38 36.5,89.04 -28.87,20.02 -76.25,46.41 -146.9,67.81 14.99,-46.04 56.65,-156.85 110.4,-156.85" /><path
         id="path174"
         style="fill:#e6ce62;fill-opacity:1;fill-rule:nonzero;stroke:none"
         d="m 4452.5,3237.71 h -952.03 c -4.02,0 -7.3,3.28 -7.3,7.3 0,4.01 3.28,7.3 7.3,7.3 h 952.03 c 4.01,0 7.3,-3.29 7.3,-7.3 0,-4.02 -3.29,-7.3 -7.3,-7.3 z m 4.44,32.58 h -960.92 c -13.84,0 -25.17,-11.33 -25.17,-25.18 0,-13.84 11.33,-25.17 25.17,-25.17 h 960.92 c 13.84,0 25.17,11.33 25.17,25.17 0,13.85 -11.33,25.18 -25.17,25.18" /><path
         id="path176"
         style="fill:#e6ce62;fill-opacity:1;fill-rule:nonzero;stroke:none"
         d="m 4451.81,3080.43 h -952.03 c -4.01,0 -7.3,3.28 -7.3,7.3 0,4.01 3.29,7.3 7.3,7.3 h 952.03 c 4.02,0 7.3,-3.29 7.3,-7.3 0,-4.02 -3.28,-7.3 -7.3,-7.3 z m 5.13,32.47 h -960.92 c -13.84,0 -25.17,-11.33 -25.17,-25.17 0,-13.85 11.33,-25.18 25.17,-25.18 h 960.92 c 13.84,0 25.17,11.33 25.17,25.18 0,13.84 -11.33,25.17 -25.17,25.17" /><path
         id="path178"
         style="fill:#e6ce62;fill-opacity:1;fill-rule:nonzero;stroke:none"
         d="m 3533.65,3185.2 18.38,-18.38 -18.38,-18.38 -18.37,18.38 z m 59.05,0 18.37,-18.38 -18.37,-18.38 -18.38,18.38 z m 59.04,0 18.38,-18.38 -18.38,-18.38 -18.38,18.38 z m 59.04,0 18.38,-18.38 -18.38,-18.38 -18.37,18.38 z m 59.05,0 18.37,-18.38 -18.37,-18.38 -18.38,18.38 z m 59.04,0 18.38,-18.38 -18.38,-18.38 -18.38,18.38 z m 59.05,0 18.37,-18.38 -18.37,-18.38 -18.38,18.38 z m 59.04,0 18.38,-18.38 -18.38,-18.38 -18.38,18.38 z m 59.04,0 18.38,-18.38 -18.38,-18.38 -18.37,18.38 z m 59.05,0 18.37,-18.38 -18.37,-18.38 -18.38,18.38 z m 59.04,0 18.38,-18.38 -18.38,-18.38 -18.38,18.38 z m 59.04,0 18.38,-18.38 -18.38,-18.38 -18.37,18.38 z m 59.05,0 18.37,-18.38 -18.37,-18.38 -18.38,18.38 z m 59.04,0 18.38,-18.38 -18.38,-18.38 -18.38,18.38 z m 59.05,0 18.37,-18.38 -18.37,-18.38 -18.38,18.38 z m 59.04,0 18.38,-18.38 -18.38,-18.38 -18.38,18.38 z m -442.83,-51.64 h 487.11 c -19.2,23.04 0,66.52 0,66.52 h -974.21 c 0,0 19.19,-43.48 0,-66.52 h 487.1" /><g
         transform="scale(10)"
         id="g180"><text
           id="text184"
           style="font-variant:normal;font-weight:normal;font-size:20.32679939px;font-family:Cinzel;-inkscape-font-specification:Cinzel-Regular;writing-mode:lr-tb;fill:#e6ce62;fill-opacity:1;fill-rule:nonzero;stroke:none"
           transform="matrix(1,0,0,-1,137.065,450.919)"><tspan
             id="tspan182"
             y="0"
             x="0 15.448368 28.294559 44.820461 64.78138 81.875557 86.95726 102.40562 119.03301 130.15121 141.27032 152.59262 168.04099 180.60295 187.06683 203.69472 220.78955">CROWN COLLECTION </tspan></text>
</g><path
         id="path186"
         style="fill:#e6ce62;fill-opacity:1;fill-rule:nonzero;stroke:none"
         d="m 1711.25,212.98 c 0,-4.75 0.74,-8.8 2.22,-12.14 1.48,-3.34 3.5,-5.86 6.07,-7.539 2.57,-1.699 5.38,-2.551 8.41,-2.551 3.09,0 5.9,0.801 8.46,2.422 2.54,1.59 4.58,4.058 6.1,7.367 1.52,3.332 2.28,7.481 2.28,12.441 0,4.672 -0.76,8.692 -2.28,12.059 -1.52,3.352 -3.58,5.922 -6.17,7.711 -2.59,1.77 -5.43,2.648 -8.51,2.648 -3.21,0 -6.08,-0.906 -8.61,-2.726 -2.53,-1.813 -4.49,-4.422 -5.88,-7.832 -1.39,-3.41 -2.09,-7.36 -2.09,-11.86 z m 34.5,-25.761 v 1.742 c -2.36,-2.699 -4.68,-4.902 -6.97,-6.582 -2.29,-1.699 -4.78,-2.988 -7.45,-3.859 -2.68,-0.891 -5.6,-1.321 -8.77,-1.321 -4.2,0 -8.09,0.891 -11.66,2.66 -3.58,1.782 -6.67,4.321 -9.28,7.621 -2.62,3.29 -4.6,7.168 -5.95,11.622 -1.34,4.457 -2.02,9.277 -2.02,14.457 0,10.961 2.68,19.523 8.03,25.64 5.35,6.121 12.4,9.18 21.14,9.18 5.05,0 9.31,-0.867 12.78,-2.59 3.47,-1.738 6.85,-4.418 10.15,-8 v 25.883 c 0,3.598 0.72,6.316 2.16,8.16 1.43,1.84 3.47,2.758 6.13,2.758 2.66,0 4.7,-0.84 6.13,-2.531 1.44,-1.7 2.16,-4.188 2.16,-7.489 v -77.351 c 0,-3.34 -0.77,-5.84 -2.32,-7.52 -1.54,-1.66 -3.53,-2.5 -5.97,-2.5 -2.4,0 -4.38,0.871 -5.95,2.602 -1.56,1.738 -2.34,4.211 -2.34,7.418" /><path
         id="path188"
         style="fill:#e6ce62;fill-opacity:1;fill-rule:nonzero;stroke:none"
         d="m 1788.79,218.5 h 31.8 c -0.42,6 -2.05,10.488 -4.85,13.469 -2.81,2.98 -6.5,4.461 -11.08,4.461 -4.37,0 -7.96,-1.5 -10.76,-4.52 -2.81,-3.019 -4.51,-7.488 -5.11,-13.41 z m 34.3,-9.961 h -34.3 c 0.04,-3.969 0.84,-7.488 2.41,-10.527 1.56,-3.043 3.64,-5.332 6.23,-6.871 2.59,-1.551 5.45,-2.309 8.58,-2.309 2.09,0 4.01,0.238 5.75,0.727 1.73,0.5 3.41,1.261 5.04,2.32 1.63,1.043 3.13,2.172 4.5,3.371 1.37,1.211 3.14,2.84 5.33,4.891 0.9,0.769 2.18,1.16 3.86,1.16 1.8,0 3.25,-0.5 4.36,-1.492 1.11,-0.989 1.68,-2.368 1.68,-4.168 0,-1.59 -0.63,-3.43 -1.87,-5.559 -1.25,-2.121 -3.12,-4.152 -5.62,-6.102 -2.51,-1.949 -5.65,-3.558 -9.45,-4.851 -3.79,-1.289 -8.14,-1.93 -13.07,-1.93 -11.26,0 -20.02,3.223 -26.28,9.641 -6.25,6.422 -9.37,15.14 -9.37,26.14 0,5.192 0.76,10 2.31,14.418 1.54,4.442 3.79,8.243 6.74,11.411 2.96,3.171 6.6,5.589 10.93,7.293 4.32,1.687 9.12,2.527 14.39,2.527 6.85,0 12.72,-1.43 17.62,-4.328 4.91,-2.891 8.59,-6.629 11.03,-11.199 2.43,-4.59 3.66,-9.262 3.66,-14.012 0,-4.418 -1.26,-7.27 -3.79,-8.578 -2.52,-1.313 -6.08,-1.973 -10.67,-1.973" /><path
         id="path190"
         style="fill:#e6ce62;fill-opacity:1;fill-rule:nonzero;stroke:none"
         d="m 1903.01,200.141 c 0,-4.84 -1.17,-8.993 -3.54,-12.442 -2.35,-3.437 -5.83,-6.058 -10.44,-7.84 -4.6,-1.769 -10.2,-2.66 -16.79,-2.66 -6.3,0 -11.7,0.961 -16.19,2.891 -4.5,1.93 -7.82,4.34 -9.96,7.219 -2.14,2.902 -3.21,5.8 -3.21,8.722 0,1.918 0.68,3.571 2.06,4.938 1.36,1.363 3.1,2.051 5.2,2.051 1.84,0 3.25,-0.45 4.23,-1.348 0.99,-0.891 1.94,-2.16 2.83,-3.781 1.8,-3.141 3.96,-5.461 6.46,-7.012 2.51,-1.539 5.92,-2.309 10.25,-2.309 3.51,0 6.39,0.782 8.64,2.34 2.25,1.578 3.37,3.36 3.37,5.371 0,3.09 -1.16,5.328 -3.5,6.739 -2.34,1.421 -6.18,2.769 -11.53,4.062 -6.04,1.488 -10.96,3.07 -14.75,4.719 -3.79,1.64 -6.82,3.82 -9.09,6.508 -2.27,2.703 -3.4,6.031 -3.4,9.961 0,3.511 1.04,6.832 3.14,9.972 2.11,3.11 5.2,5.61 9.3,7.469 4.08,1.871 9.01,2.801 14.8,2.801 4.54,0 8.62,-0.473 12.23,-1.422 3.63,-0.93 6.65,-2.199 9.06,-3.789 2.43,-1.582 4.27,-3.332 5.53,-5.262 1.26,-1.93 1.89,-3.809 1.89,-5.66 0,-2.008 -0.67,-3.66 -2.02,-4.938 -1.35,-1.281 -3.26,-1.929 -5.75,-1.929 -1.8,0 -3.33,0.508 -4.59,1.547 -1.26,1.023 -2.71,2.562 -4.34,4.621 -1.33,1.711 -2.88,3.082 -4.69,4.109 -1.8,1.031 -4.24,1.543 -7.32,1.543 -3.18,0 -5.8,-0.672 -7.91,-2.031 -2.09,-1.34 -3.14,-3.02 -3.14,-5.031 0,-1.848 0.77,-3.36 2.31,-4.528 1.54,-1.183 3.62,-2.16 6.23,-2.933 2.62,-0.758 6.21,-1.7 10.8,-2.821 5.43,-1.328 9.87,-2.918 13.33,-4.758 3.44,-1.832 6.05,-4.011 7.84,-6.519 1.77,-2.5 2.66,-5.359 2.66,-8.57" /><path
         id="path192"
         style="fill:#e6ce62;fill-opacity:1;fill-rule:nonzero;stroke:none"
         d="m 1929.6,238.551 v -50.68 c 0,-3.519 -0.83,-6.18 -2.51,-7.973 -1.67,-1.796 -3.78,-2.699 -6.36,-2.699 -2.57,0 -4.66,0.922 -6.26,2.762 -1.61,1.84 -2.41,4.48 -2.41,7.91 v 50.168 c 0,3.473 0.8,6.082 2.41,7.84 1.6,1.762 3.69,2.633 6.26,2.633 2.58,0 4.69,-0.871 6.36,-2.633 1.68,-1.758 2.51,-4.199 2.51,-7.328 z m -8.67,18.109 c -2.45,0 -4.53,0.762 -6.27,2.262 -1.73,1.488 -2.6,3.609 -2.6,6.359 0,2.489 0.89,4.52 2.67,6.141 1.77,1.609 3.84,2.41 6.2,2.41 2.27,0 4.28,-0.73 6.03,-2.191 1.76,-1.461 2.64,-3.571 2.64,-6.36 0,-2.699 -0.86,-4.812 -2.57,-6.332 -1.72,-1.519 -3.75,-2.289 -6.1,-2.289" /><path
         id="path194"
         style="fill:#e6ce62;fill-opacity:1;fill-rule:nonzero;stroke:none"
         d="m 1955.61,213.43 c 0,-7.11 1.55,-12.481 4.66,-16.121 3.1,-3.649 7.12,-5.469 12.05,-5.469 2.91,0 5.66,0.789 8.25,2.351 2.59,1.571 4.7,3.918 6.33,7.071 1.62,3.148 2.44,6.968 2.44,11.457 0,7.152 -1.57,12.73 -4.72,16.703 -3.15,3.988 -7.29,5.976 -12.44,5.976 -5.01,0 -9.02,-1.906 -12.04,-5.718 -3.02,-3.801 -4.53,-9.231 -4.53,-16.25 z m 50.82,22.23 v -50.941 c 0,-5.828 -0.62,-10.84 -1.87,-15.039 -1.23,-4.188 -3.23,-7.668 -5.97,-10.41 -2.74,-2.731 -6.33,-4.77 -10.76,-6.09 -4.43,-1.34 -9.95,-2 -16.54,-2 -6.04,0 -11.44,0.851 -16.19,2.539 -4.75,1.703 -8.41,3.883 -10.99,6.551 -2.57,2.679 -3.86,5.429 -3.86,8.261 0,2.141 0.73,3.891 2.19,5.231 1.46,1.347 3.22,2.027 5.27,2.027 2.57,0 4.82,-1.141 6.74,-3.398 0.94,-1.161 1.92,-2.34 2.92,-3.512 1.01,-1.188 2.13,-2.188 3.35,-3.027 1.22,-0.821 2.69,-1.442 4.4,-1.852 1.71,-0.398 3.69,-0.609 5.91,-0.609 4.54,0 8.06,0.629 10.57,1.89 2.51,1.27 4.26,3.039 5.27,5.309 1.01,2.262 1.59,4.691 1.77,7.281 0.17,2.598 0.29,6.758 0.38,12.508 -2.7,-3.777 -5.81,-6.649 -9.35,-8.617 -3.53,-1.973 -7.74,-2.953 -12.62,-2.953 -5.87,0 -11,1.5 -15.39,4.492 -4.39,3 -7.76,7.199 -10.12,12.59 -2.35,5.41 -3.53,11.629 -3.53,18.699 0,5.262 0.72,10.031 2.15,14.262 1.44,4.25 3.49,7.82 6.14,10.73 2.65,2.918 5.71,5.109 9.18,6.59 3.47,1.469 7.28,2.207 11.44,2.207 4.96,0 9.27,-0.957 12.91,-2.848 3.64,-1.922 7.03,-4.902 10.15,-8.972 v 2.382 c 0,3.039 0.75,5.391 2.25,7.071 1.5,1.66 3.43,2.5 5.79,2.5 3.38,0 5.62,-1.114 6.74,-3.313 1.11,-2.199 1.67,-5.39 1.67,-9.539" /><path
         id="path196"
         style="fill:#e6ce62;fill-opacity:1;fill-rule:nonzero;stroke:none"
         d="m 2034.31,238.809 v -2.118 c 3.07,4.071 6.45,7.047 10.11,8.957 3.67,1.911 7.87,2.864 12.63,2.864 4.62,0 8.75,-1.012 12.4,-3.02 3.63,-2.023 6.36,-4.863 8.15,-8.543 1.16,-2.14 1.91,-4.461 2.25,-6.937 0.34,-2.492 0.52,-5.653 0.52,-9.512 v -32.629 c 0,-3.519 -0.8,-6.18 -2.41,-7.973 -1.61,-1.796 -3.69,-2.699 -6.26,-2.699 -2.62,0 -4.74,0.922 -6.36,2.762 -1.64,1.84 -2.44,4.48 -2.44,7.91 v 29.231 c 0,5.777 -0.81,10.199 -2.42,13.257 -1.6,3.063 -4.8,4.602 -9.6,4.602 -3.12,0 -5.98,-0.93 -8.54,-2.789 -2.57,-1.871 -4.46,-4.442 -5.66,-7.692 -0.85,-2.609 -1.28,-7.488 -1.28,-14.64 v -21.969 c 0,-3.562 -0.83,-6.23 -2.47,-8.012 -1.65,-1.769 -3.78,-2.66 -6.4,-2.66 -2.53,0 -4.6,0.922 -6.23,2.762 -1.63,1.84 -2.44,4.48 -2.44,7.91 v 50.68 c 0,3.34 0.73,5.84 2.18,7.488 1.46,1.652 3.45,2.473 5.97,2.473 1.55,0 2.94,-0.364 4.19,-1.09 1.23,-0.742 2.23,-1.832 2.98,-3.274 0.75,-1.457 1.13,-3.25 1.13,-5.339" /><path
         id="path198"
         style="fill:#e6ce62;fill-opacity:1;fill-rule:nonzero;stroke:none"
         d="m 2106.7,218.5 h 31.8 c -0.42,6 -2.04,10.488 -4.85,13.469 -2.8,2.98 -6.5,4.461 -11.08,4.461 -4.37,0 -7.96,-1.5 -10.76,-4.52 -2.81,-3.019 -4.51,-7.488 -5.11,-13.41 z m 34.31,-9.961 h -34.31 c 0.05,-3.969 0.85,-7.488 2.41,-10.527 1.57,-3.043 3.64,-5.332 6.24,-6.871 2.58,-1.551 5.44,-2.309 8.57,-2.309 2.1,0 4.01,0.238 5.75,0.727 1.73,0.5 3.41,1.261 5.05,2.32 1.62,1.043 3.11,2.172 4.5,3.371 1.36,1.211 3.14,2.84 5.32,4.891 0.9,0.769 2.19,1.16 3.86,1.16 1.8,0 3.25,-0.5 4.37,-1.492 1.11,-0.989 1.66,-2.368 1.66,-4.168 0,-1.59 -0.61,-3.43 -1.86,-5.559 -1.24,-2.121 -3.12,-4.152 -5.62,-6.102 -2.51,-1.949 -5.65,-3.558 -9.44,-4.851 -3.79,-1.289 -8.15,-1.93 -13.08,-1.93 -11.26,0 -20.02,3.223 -26.28,9.641 -6.24,6.422 -9.37,15.14 -9.37,26.14 0,5.192 0.77,10 2.31,14.418 1.54,4.442 3.79,8.243 6.75,11.411 2.95,3.171 6.59,5.589 10.92,7.293 4.32,1.687 9.12,2.527 14.39,2.527 6.85,0 12.72,-1.43 17.63,-4.328 4.91,-2.891 8.58,-6.629 11.02,-11.199 2.44,-4.59 3.66,-9.262 3.66,-14.012 0,-4.418 -1.26,-7.27 -3.79,-8.578 -2.52,-1.313 -6.08,-1.973 -10.66,-1.973" /><path
         id="path200"
         style="fill:#e6ce62;fill-opacity:1;fill-rule:nonzero;stroke:none"
         d="m 2178.01,212.98 c 0,-4.75 0.73,-8.8 2.21,-12.14 1.48,-3.34 3.5,-5.86 6.08,-7.539 2.56,-1.699 5.37,-2.551 8.41,-2.551 3.08,0 5.9,0.801 8.44,2.422 2.55,1.59 4.59,4.058 6.11,7.367 1.52,3.332 2.28,7.481 2.28,12.441 0,4.672 -0.76,8.692 -2.28,12.059 -1.52,3.352 -3.58,5.922 -6.17,7.711 -2.59,1.77 -5.43,2.648 -8.51,2.648 -3.21,0 -6.08,-0.906 -8.61,-2.726 -2.52,-1.813 -4.49,-4.422 -5.88,-7.832 -1.39,-3.41 -2.08,-7.36 -2.08,-11.86 z m 34.49,-25.761 v 1.742 c -2.35,-2.699 -4.68,-4.902 -6.97,-6.582 -2.29,-1.699 -4.77,-2.988 -7.45,-3.859 -2.67,-0.891 -5.6,-1.321 -8.77,-1.321 -4.2,0 -8.08,0.891 -11.66,2.66 -3.57,1.782 -6.67,4.321 -9.28,7.621 -2.62,3.29 -4.6,7.168 -5.94,11.622 -1.35,4.457 -2.03,9.277 -2.03,14.457 0,10.961 2.68,19.523 8.03,25.64 5.36,6.121 12.4,9.18 21.14,9.18 5.05,0 9.32,-0.867 12.78,-2.59 3.47,-1.738 6.86,-4.418 10.15,-8 v 25.883 c 0,3.598 0.72,6.316 2.16,8.16 1.43,1.84 3.48,2.758 6.13,2.758 2.66,0 4.7,-0.84 6.14,-2.531 1.43,-1.7 2.15,-4.188 2.15,-7.489 v -77.351 c 0,-3.34 -0.77,-5.84 -2.31,-7.52 -1.54,-1.66 -3.53,-2.5 -5.98,-2.5 -2.39,0 -4.38,0.871 -5.94,2.602 -1.57,1.738 -2.35,4.211 -2.35,7.418" /><path
         id="path202"
         style="fill:#e6ce62;fill-opacity:1;fill-rule:nonzero;stroke:none"
         d="m 2285.02,212.469 c 0,-6.977 1.6,-12.34 4.79,-16.09 3.19,-3.75 7.38,-5.629 12.56,-5.629 4.41,0 8.21,1.91 11.4,5.75 3.19,3.84 4.79,9.332 4.79,16.48 0,4.629 -0.66,8.622 -1.99,11.95 -1.33,3.34 -3.21,5.929 -5.65,7.742 -2.45,1.82 -5.3,2.726 -8.55,2.726 -3.34,0 -6.32,-0.906 -8.93,-2.726 -2.61,-1.813 -4.67,-4.453 -6.17,-7.902 -1.5,-3.438 -2.25,-7.551 -2.25,-12.301 z m -0.83,52.101 v -26.781 c 3.29,3.422 6.66,6.051 10.08,7.859 3.43,1.821 7.67,2.731 12.73,2.731 5.82,0 10.92,-1.379 15.32,-4.129 4.38,-2.781 7.79,-6.781 10.21,-12.031 2.42,-5.227 3.64,-11.457 3.64,-18.66 0,-5.309 -0.68,-10.18 -2.03,-14.61 -1.35,-4.437 -3.31,-8.277 -5.88,-11.527 -2.57,-3.262 -5.68,-5.781 -9.34,-7.563 -3.67,-1.769 -7.71,-2.66 -12.12,-2.66 -2.7,0 -5.24,0.321 -7.61,0.961 -2.38,0.649 -4.4,1.481 -6.07,2.539 -1.67,1.051 -3.09,2.133 -4.27,3.242 -1.18,1.11 -2.74,2.789 -4.66,5.02 v -1.742 c 0,-3.297 -0.8,-5.789 -2.38,-7.489 -1.58,-1.691 -3.59,-2.531 -6.04,-2.531 -2.48,0 -4.46,0.84 -5.94,2.531 -1.48,1.7 -2.22,4.192 -2.22,7.489 v 76.59 c 0,3.55 0.72,6.242 2.15,8.05 1.44,1.821 3.45,2.731 6.01,2.731 2.7,0 4.78,-0.86 6.23,-2.59 1.46,-1.75 2.19,-4.211 2.19,-7.43" /><path
         id="path204"
         style="fill:#e6ce62;fill-opacity:1;fill-rule:nonzero;stroke:none"
         d="m 2358.9,175.012 1.61,3.929 -21.59,54.348 c -1.32,3.121 -1.99,5.391 -1.99,6.813 0,1.5 0.39,2.89 1.16,4.168 0.77,1.281 1.83,2.312 3.17,3.082 1.35,0.777 2.76,1.16 4.21,1.16 2.53,0 4.43,-0.801 5.72,-2.41 1.29,-1.602 2.42,-3.903 3.41,-6.903 l 14.84,-43.168 14.07,40.149 c 1.11,3.242 2.12,5.8 3.02,7.64 0.9,1.852 1.85,3.09 2.85,3.719 1.01,0.652 2.43,0.973 4.28,0.973 1.33,0 2.6,-0.352 3.82,-1.063 1.22,-0.707 2.16,-1.66 2.83,-2.859 0.66,-1.199 1,-2.461 1,-3.789 -0.18,-0.813 -0.45,-1.961 -0.84,-3.469 -0.39,-1.492 -0.86,-3.023 -1.41,-4.562 l -22.87,-59.879 c -1.98,-5.262 -3.9,-9.391 -5.79,-12.391 -1.89,-3 -4.38,-5.309 -7.48,-6.91 -3.11,-1.61 -7.3,-2.41 -12.57,-2.41 -5.13,0 -8.99,0.562 -11.55,1.672 -2.58,1.117 -3.86,3.148 -3.86,6.109 0,2 0.61,3.559 1.83,4.648 1.22,1.09 3.03,1.653 5.42,1.653 0.95,0 1.87,-0.133 2.77,-0.403 1.11,-0.25 2.08,-0.379 2.89,-0.379 2.01,0 3.6,0.301 4.76,0.899 1.15,0.601 2.19,1.633 3.11,3.121 0.92,1.469 1.98,3.648 3.18,6.512" /><path
         id="path206"
         style="fill:#e6ce62;fill-opacity:1;fill-rule:nonzero;stroke:none"
         d="m 2612.98,246.992 h 4.18 v 5.27 c 0,5.508 0.68,9.847 2.08,13.097 1.38,3.243 3.75,5.59 7.08,7.071 3.31,1.472 7.86,2.211 13.64,2.211 10.28,0 15.37,-2.481 15.37,-7.539 0,-1.61 -0.54,-3 -1.63,-4.161 -1.04,-1.14 -2.32,-1.73 -3.77,-1.73 -0.67,0 -1.88,0.129 -3.57,0.398 -1.6,0.231 -3.05,0.383 -4.21,0.383 -3.16,0 -5.19,-0.953 -6.12,-2.812 -0.86,-1.86 -1.32,-4.52 -1.32,-8.008 v -4.18 h 4.28 c 6.7,0 10.02,-2.004 10.02,-6.051 0,-2.839 -0.86,-4.671 -2.66,-5.449 -1.77,-0.773 -4.22,-1.152 -7.36,-1.152 h -4.28 v -46.481 c 0,-3.449 -0.82,-6.089 -2.5,-7.898 -1.63,-1.84 -3.75,-2.75 -6.38,-2.75 -2.48,0 -4.53,0.91 -6.2,2.75 -1.66,1.809 -2.47,4.449 -2.47,7.898 v 46.481 h -4.83 c -2.63,0 -4.61,0.57 -6.04,1.769 -1.41,1.153 -2.13,2.7 -2.13,4.582 0,4.219 2.94,6.301 8.82,6.301" /><path
         id="path208"
         style="fill:#e6ce62;fill-opacity:1;fill-rule:nonzero;stroke:none"
         d="m 2670.4,202.531 v -14.672 c 0,-3.539 -0.9,-6.211 -2.53,-7.98 -1.67,-1.789 -3.78,-2.668 -6.34,-2.668 -2.58,0 -4.65,0.891 -6.27,2.711 -1.6,1.789 -2.44,4.437 -2.44,7.937 v 48.86 c 0,7.883 2.85,11.832 8.53,11.832 2.94,0 5.03,-0.91 6.32,-2.762 1.28,-1.848 1.99,-4.559 2.14,-8.18 2.08,3.621 4.22,6.332 6.42,8.18 2.24,1.852 5.16,2.762 8.86,2.762 3.71,0 7.25,-0.91 10.72,-2.762 3.48,-1.848 5.21,-4.309 5.21,-7.34 0,-2.129 -0.74,-3.929 -2.2,-5.289 -1.49,-1.41 -3.07,-2.101 -4.78,-2.101 -0.67,0 -2.24,0.421 -4.68,1.211 -2.47,0.769 -4.66,1.171 -6.51,1.171 -2.57,0 -4.69,-0.691 -6.3,-2.011 -1.64,-1.391 -2.92,-3.371 -3.82,-6 -0.88,-2.668 -1.48,-5.86 -1.85,-9.5 -0.33,-3.668 -0.48,-8.141 -0.48,-13.399" /><path
         id="path210"
         style="fill:#e6ce62;fill-opacity:1;fill-rule:nonzero;stroke:none"
         d="m 2716.71,218.539 h 31.8 c -0.42,5.981 -2.01,10.481 -4.83,13.43 -2.82,3 -6.48,4.472 -11.09,4.472 -4.37,0 -7.96,-1.492 -10.77,-4.531 -2.8,-3.008 -4.52,-7.469 -5.11,-13.371 m 34.33,-9.98 h -34.33 c 0.06,-3.969 0.84,-7.508 2.4,-10.539 1.59,-3.02 3.65,-5.321 6.26,-6.879 2.6,-1.532 5.43,-2.289 8.58,-2.289 2.1,0 4.01,0.218 5.74,0.75 1.72,0.468 3.42,1.25 5.04,2.296 1.64,1.032 3.12,2.161 4.5,3.391 1.36,1.18 3.15,2.813 5.34,4.863 0.91,0.758 2.19,1.168 3.84,1.168 1.82,0 3.26,-0.5 4.4,-1.5 1.12,-0.988 1.64,-2.371 1.64,-4.172 0,-1.589 -0.6,-3.437 -1.81,-5.539 -1.27,-2.148 -3.13,-4.168 -5.65,-6.129 -2.53,-1.929 -5.68,-3.57 -9.46,-4.832 -3.78,-1.289 -8.15,-1.937 -13.06,-1.937 -11.3,0 -20.05,3.199 -26.29,9.621 -6.25,6.438 -9.41,15.168 -9.41,26.168 0,5.18 0.79,10 2.35,14.441 1.52,4.45 3.77,8.219 6.75,11.411 2.95,3.179 6.56,5.597 10.91,7.289 4.31,1.691 9.11,2.531 14.39,2.531 6.84,0 12.73,-1.442 17.63,-4.363 4.9,-2.86 8.62,-6.61 11.02,-11.188 2.45,-4.609 3.67,-9.262 3.67,-14.031 0,-4.391 -1.28,-7.238 -3.8,-8.57 -2.52,-1.301 -6.07,-1.961 -10.65,-1.961" /><path
         id="path212"
         style="fill:#e6ce62;fill-opacity:1;fill-rule:nonzero;stroke:none"
         d="m 2789.69,218.539 h 31.79 c -0.43,5.981 -2.05,10.481 -4.83,13.43 -2.85,3 -6.51,4.472 -11.11,4.472 -4.37,0 -7.96,-1.492 -10.78,-4.531 -2.79,-3.008 -4.51,-7.469 -5.07,-13.371 m 34.31,-9.98 h -34.31 c 0.03,-3.969 0.84,-7.508 2.39,-10.539 1.57,-3.02 3.65,-5.321 6.23,-6.879 2.59,-1.532 5.45,-2.289 8.6,-2.289 2.08,0 4.01,0.218 5.72,0.75 1.75,0.468 3.42,1.25 5.07,2.296 1.64,1.032 3.11,2.161 4.49,3.391 1.35,1.18 3.14,2.813 5.33,4.863 0.91,0.758 2.21,1.168 3.85,1.168 1.81,0 3.27,-0.5 4.4,-1.5 1.11,-0.988 1.62,-2.371 1.62,-4.172 0,-1.589 -0.59,-3.437 -1.85,-5.539 -1.2,-2.148 -3.08,-4.168 -5.61,-6.129 -2.51,-1.929 -5.69,-3.57 -9.44,-4.832 -3.77,-1.289 -8.17,-1.937 -13.09,-1.937 -11.27,0 -20.01,3.199 -26.29,9.621 -6.25,6.438 -9.39,15.168 -9.39,26.168 0,5.18 0.78,10 2.35,14.441 1.53,4.45 3.78,8.219 6.74,11.411 2.94,3.179 6.58,5.597 10.92,7.289 4.31,1.691 9.13,2.531 14.4,2.531 6.82,0 12.7,-1.442 17.67,-4.363 4.87,-2.86 8.56,-6.61 10.97,-11.188 2.43,-4.609 3.68,-9.262 3.68,-14.031 0,-4.391 -1.29,-7.238 -3.79,-8.57 -2.54,-1.301 -6.09,-1.961 -10.66,-1.961" /><path
         id="path214"
         style="fill:#e6ce62;fill-opacity:1;fill-rule:nonzero;stroke:none"
         d="m 2896.81,213.191 c 0,4.629 -0.72,8.618 -2.13,11.93 -1.41,3.328 -3.38,5.859 -5.86,7.629 -2.48,1.77 -5.29,2.68 -8.34,2.68 -4.82,0 -8.91,-1.918 -12.23,-5.711 -3.33,-3.828 -5,-9.438 -5,-16.86 0,-6.949 1.65,-12.398 4.97,-16.277 3.3,-3.883 7.35,-5.812 12.26,-5.812 2.9,0 5.62,0.859 8.1,2.519 2.51,1.711 4.5,4.242 5.98,7.621 1.49,3.399 2.25,7.5 2.25,12.281 m -34.39,25.489 v -2.098 c 3.29,4.059 6.72,7.047 10.31,8.949 3.51,1.93 7.56,2.891 12.05,2.891 5.38,0 10.39,-1.41 14.93,-4.172 4.54,-2.801 8.11,-6.871 10.75,-12.219 2.64,-5.383 3.96,-11.699 3.96,-19.031 0,-5.391 -0.76,-10.359 -2.27,-14.891 -1.51,-4.519 -3.63,-8.3 -6.28,-11.359 -2.66,-3.051 -5.79,-5.43 -9.4,-7.078 -3.67,-1.633 -7.52,-2.461 -11.69,-2.461 -4.99,0 -9.22,1.008 -12.61,3.027 -3.4,1.973 -6.65,4.961 -9.75,8.832 v -26.332 c 0,-7.679 -2.82,-11.566 -8.42,-11.566 -3.31,0 -5.47,1 -6.57,2.976 -1.02,2.024 -1.58,4.891 -1.58,8.731 v 75.711 c 0,3.351 0.72,5.808 2.17,7.492 1.45,1.617 3.46,2.469 5.98,2.469 2.5,0 4.51,-0.852 6.06,-2.531 1.59,-1.719 2.36,-4.129 2.36,-7.34" /><path
         id="path216"
         style="fill:#e6ce62;fill-opacity:1;fill-rule:nonzero;stroke:none"
         d="m 2940.77,238.59 v -50.738 c 0,-3.493 -0.84,-6.141 -2.5,-7.93 -1.69,-1.82 -3.79,-2.711 -6.37,-2.711 -2.57,0 -4.63,0.91 -6.27,2.75 -1.58,1.871 -2.41,4.5 -2.41,7.891 v 50.238 c 0,3.449 0.83,6.051 2.41,7.808 1.64,1.793 3.7,2.653 6.27,2.653 2.58,0 4.68,-0.86 6.37,-2.653 1.66,-1.757 2.5,-4.207 2.5,-7.308 m -8.68,18.121 c -2.45,0 -4.53,0.769 -6.25,2.269 -1.75,1.5 -2.62,3.602 -2.62,6.329 0,2.492 0.89,4.531 2.68,6.16 1.77,1.582 3.84,2.402 6.19,2.402 2.3,0 4.3,-0.723 6.04,-2.16 1.76,-1.481 2.64,-3.609 2.64,-6.402 0,-2.7 -0.86,-4.809 -2.55,-6.329 -1.72,-1.5 -3.75,-2.269 -6.13,-2.269" /><path
         id="path218"
         style="fill:#e6ce62;fill-opacity:1;fill-rule:nonzero;stroke:none"
         d="m 2997.32,185.219 -15.45,25.472 -9.53,-8.98 v -13.973 c 0,-3.379 -0.9,-5.968 -2.68,-7.777 -1.74,-1.84 -3.83,-2.75 -6.13,-2.75 -2.7,0 -4.84,0.891 -6.36,2.711 -1.53,1.789 -2.33,4.437 -2.33,7.937 v 74.84 c 0,3.871 0.78,6.832 2.24,8.883 1.51,2.059 3.69,3.059 6.45,3.059 2.7,0 4.82,-0.93 6.42,-2.782 1.59,-1.828 2.39,-4.558 2.39,-8.129 v -42.57 l 19.73,20.719 c 2.45,2.543 4.28,4.332 5.59,5.262 1.28,0.941 2.83,1.41 4.66,1.41 2.21,0 4.02,-0.699 5.52,-2.09 1.43,-1.391 2.17,-3.152 2.17,-5.231 0,-2.57 -2.4,-6.011 -7.14,-10.289 l -9.31,-8.543 17.99,-28.296 c 1.3,-2.122 2.29,-3.68 2.86,-4.77 0.57,-1.082 0.88,-2.16 0.88,-3.133 0,-2.789 -0.77,-4.961 -2.3,-6.59 -1.52,-1.597 -3.55,-2.398 -6,-2.398 -2.14,0 -3.81,0.551 -4.96,1.73 -1.15,1.168 -2.75,3.27 -4.71,6.278" /><path
         id="path220"
         style="fill:#e6ce62;fill-opacity:1;fill-rule:nonzero;stroke:none"
         d="m 3035.44,177.211 c -2.65,0 -4.92,0.859 -6.86,2.578 -1.92,1.68 -2.9,4.102 -2.9,7.203 0,2.61 0.93,4.86 2.78,6.727 1.85,1.89 4.1,2.832 6.81,2.832 2.69,0 4.98,-0.942 6.92,-2.781 1.89,-1.872 2.85,-4.141 2.85,-6.778 0,-3.062 -0.96,-5.461 -2.85,-7.172 -1.94,-1.75 -4.19,-2.609 -6.75,-2.609" /><path
         id="path222"
         style="fill:#e6ce62;fill-opacity:1;fill-rule:nonzero;stroke:none"
         d="m 3122.68,198.93 c 0,-2.168 -0.65,-4.52 -1.96,-7 -1.3,-2.5 -3.31,-4.848 -6,-7.098 -2.67,-2.25 -6.03,-4.082 -10.11,-5.441 -4.06,-1.36 -8.66,-2.071 -13.73,-2.071 -10.87,0 -19.34,3.18 -25.42,9.481 -6.06,6.328 -9.1,14.808 -9.1,25.429 0,7.219 1.38,13.571 4.18,19.102 2.76,5.508 6.8,9.789 12.05,12.809 5.27,3.031 11.61,4.531 18.9,4.531 4.56,0 8.71,-0.66 12.53,-1.992 3.79,-1.321 6.98,-3.051 9.64,-5.141 2.62,-2.117 4.64,-4.348 6.02,-6.707 1.4,-2.371 2.08,-4.602 2.08,-6.672 0,-2.09 -0.77,-3.871 -2.32,-5.328 -1.59,-1.453 -3.49,-2.191 -5.67,-2.191 -1.48,0 -2.69,0.379 -3.66,1.121 -0.97,0.758 -2.06,1.957 -3.24,3.668 -2.15,3.23 -4.37,5.691 -6.74,7.3 -2.32,1.641 -5.28,2.45 -8.88,2.45 -5.15,0 -9.36,-2.02 -12.54,-6.071 -3.16,-4.027 -4.76,-9.609 -4.76,-16.597 0,-3.313 0.43,-6.364 1.24,-9.121 0.79,-2.75 1.97,-5.11 3.52,-7.059 1.56,-1.941 3.41,-3.422 5.59,-4.434 2.19,-1.027 4.6,-1.519 7.19,-1.519 3.53,0 6.54,0.812 9.04,2.441 2.55,1.629 4.75,4.102 6.68,7.45 1.07,1.972 2.21,3.5 3.44,4.628 1.23,1.102 2.77,1.684 4.57,1.684 2.14,0 3.92,-0.832 5.32,-2.453 1.42,-1.617 2.14,-3.367 2.14,-5.199" /><path
         id="path224"
         style="fill:#e6ce62;fill-opacity:1;fill-rule:nonzero;stroke:none"
         d="m 3180.77,212.859 c 0,7.161 -1.59,12.731 -4.73,16.7 -3.13,4.031 -7.37,6.011 -12.67,6.011 -3.44,0 -6.46,-0.89 -9.09,-2.672 -2.61,-1.769 -4.6,-4.386 -6.01,-7.867 -1.42,-3.472 -2.14,-7.531 -2.14,-12.172 0,-4.589 0.7,-8.57 2.1,-11.988 1.4,-3.461 3.39,-6.07 5.99,-7.891 2.61,-1.8 5.65,-2.73 9.15,-2.73 5.3,0 9.54,2 12.67,6.031 3.14,3.989 4.73,9.539 4.73,16.578 m 17.61,0 c 0,-5.199 -0.83,-10.039 -2.41,-14.461 -1.67,-4.418 -4,-8.207 -7.1,-11.359 -3.08,-3.168 -6.78,-5.598 -11.04,-7.297 -4.32,-1.672 -9.13,-2.543 -14.46,-2.543 -5.31,0 -10.1,0.871 -14.35,2.59 -4.22,1.68 -7.92,4.152 -11,7.32 -3.12,3.223 -5.47,6.993 -7.11,11.34 -1.55,4.352 -2.37,9.16 -2.37,14.41 0,5.321 0.84,10.192 2.42,14.602 1.64,4.43 3.98,8.199 7.03,11.32 3.05,3.117 6.72,5.528 11.03,7.239 4.35,1.679 9.13,2.531 14.35,2.531 5.3,0 10.13,-0.852 14.46,-2.59 4.32,-1.691 8,-4.152 11.12,-7.301 3.1,-3.211 5.43,-6.961 7.03,-11.301 1.58,-4.41 2.4,-9.211 2.4,-14.5" /><path
         id="path226"
         style="fill:#e6ce62;fill-opacity:1;fill-rule:nonzero;stroke:none"
         d="m 3265.28,211.582 v -23.32 c 0,-3.692 -0.81,-6.43 -2.49,-8.301 -1.69,-1.84 -3.87,-2.762 -6.62,-2.762 -2.65,0 -4.82,0.922 -6.43,2.762 -1.67,1.871 -2.52,4.609 -2.52,8.301 v 27.949 c 0,4.418 -0.13,7.859 -0.43,10.309 -0.31,2.39 -1.13,4.429 -2.45,5.968 -1.32,1.594 -3.44,2.383 -6.29,2.383 -5.75,0 -9.52,-1.973 -11.34,-5.961 -1.81,-3.898 -2.75,-9.558 -2.75,-16.961 v -23.687 c 0,-3.641 -0.83,-6.403 -2.44,-8.274 -1.69,-1.847 -3.84,-2.789 -6.53,-2.789 -2.68,0 -4.85,0.942 -6.54,2.789 -1.7,1.871 -2.54,4.633 -2.54,8.274 v 50.187 c 0,3.313 0.75,5.821 2.26,7.512 1.55,1.738 3.56,2.59 6.02,2.59 2.41,0 4.41,-0.84 6.03,-2.41 1.6,-1.61 2.4,-3.832 2.4,-6.661 v -1.648 c 3.06,3.617 6.32,6.297 9.77,7.977 3.49,1.761 7.32,2.613 11.58,2.613 4.41,0 8.19,-0.883 11.35,-2.633 3.18,-1.769 5.78,-4.437 7.85,-7.957 2.97,3.57 6.15,6.238 9.54,7.977 3.38,1.742 7.12,2.613 11.24,2.613 4.78,0 8.94,-0.961 12.41,-2.832 3.44,-1.891 6.03,-4.598 7.76,-8.09 1.49,-3.191 2.23,-8.18 2.23,-14.988 v -34.25 c 0,-3.692 -0.83,-6.43 -2.48,-8.301 -1.67,-1.84 -3.89,-2.762 -6.63,-2.762 -2.67,0 -4.83,0.942 -6.53,2.789 -1.69,1.871 -2.54,4.633 -2.54,8.274 v 29.508 c 0,3.769 -0.16,6.781 -0.47,9.039 -0.31,2.281 -1.19,4.203 -2.59,5.73 -1.43,1.543 -3.58,2.332 -6.44,2.332 -2.32,0 -4.51,-0.723 -6.59,-2.082 -2.07,-1.348 -3.7,-3.23 -4.87,-5.5 -1.26,-2.969 -1.93,-8.199 -1.93,-15.707" /><path
         id="path228"
         style="fill:#e6ce62;fill-opacity:1;fill-rule:nonzero;stroke:none"
         d="m 2448.83,217.109 c -0.01,0.032 -0.01,0.071 -0.01,0.121 0,-0.05 0,-0.089 0.01,-0.121" /><path
         id="path230"
         style="fill:#e6ce62;fill-opacity:1;fill-rule:nonzero;stroke:none"
         d="m 2449.71,211.5 c 0.02,0 0.02,0 0.02,0 -0.33,1.602 -0.59,3.191 -0.8,4.75 0.21,-1.578 0.47,-3.168 0.78,-4.75" /><path
         id="path232"
         style="fill:#e6ce62;fill-opacity:1;fill-rule:nonzero;stroke:none"
         d="m 2455.52,195.23 c -0.04,0.059 -0.07,0.141 -0.12,0.219 0.05,-0.078 0.08,-0.16 0.12,-0.219" /><path
         id="path234"
         style="fill:#e6ce62;fill-opacity:1;fill-rule:nonzero;stroke:none"
         d="m 2454.97,196.309 c -0.16,0.3 -0.3,0.613 -0.45,0.91 0.15,-0.321 0.29,-0.61 0.45,-0.91" /><path
         id="path236"
         style="fill:#e6ce62;fill-opacity:1;fill-rule:nonzero;stroke:none"
         d="m 2451.35,205.23 c 0.85,-2.699 1.89,-5.332 3.09,-7.832 -1.22,2.563 -2.24,5.192 -3.07,7.832 -0.01,0 -0.02,0 -0.02,0" /><path
         id="path238"
         style="fill:#e6ce62;fill-opacity:1;fill-rule:nonzero;stroke:none"
         d="m 2516.72,284.32 c 3.39,0 5.9,-0.269 8.76,-0.75 l 0.82,5.16 c 0,0 -7.92,2.442 -18.34,1.579 l -0.82,2.812 c 3.24,0.68 5.67,3.559 5.67,7 0,3.93 -3.21,7.121 -7.15,7.121 -3.94,0 -7.14,-3.191 -7.14,-7.121 0,-3.441 2.42,-6.32 5.65,-7 l 0.91,-3.133 c -11.06,-1.519 -19.85,-5.828 -19.85,-5.828 l 1.55,-4.769 c 6.69,2.218 12.49,3.578 17.75,4.148 5.16,0.543 9.03,0.781 12.19,0.781" /><path
         id="path240"
         style="fill:#e6ce62;fill-opacity:1;fill-rule:nonzero;stroke:none"
         d="m 2455.39,258.219 0.04,0.062 c 0.26,0.328 0.51,0.649 0.76,0.961 l -2.11,1.528 -3.3,2.41 c -0.19,-0.258 -5.38,-5.039 -9.48,-13.848 -0.17,0.27 -0.38,0.539 -0.61,0.797 -1.23,1.34 -2.94,2.031 -5.13,1.992 -0.02,0 -0.06,0 -0.1,0 -1.35,0 -2.28,0.449 -2.88,1 0.6,0.758 0.96,1.731 0.96,2.789 0,2.488 -2.02,4.531 -4.52,4.531 -2.5,0 -4.53,-2.043 -4.53,-4.531 0,-2.5 2.03,-4.519 4.53,-4.519 0.39,0 0.76,0.058 1.13,0.14 1.11,-1.242 2.87,-2.32 5.46,-2.261 1.33,0.011 2.3,-0.329 2.96,-1.051 0.75,-0.821 1,-2.008 1.08,-2.899 -0.01,-0.011 -0.01,-0.031 -0.02,-0.031 -2.95,-8.047 -2.11,-18.059 -2.11,-18.059 l 7.15,-0.281 c 0.15,3.641 0.67,10.02 2.52,15.082 3.56,9.809 8.02,15.938 8.2,16.188" /><path
         id="path242"
         style="fill:#e6ce62;fill-opacity:1;fill-rule:nonzero;stroke:none"
         d="m 2578.95,278.34 c -2.49,0 -4.53,-2.02 -4.53,-4.52 0,-0.39 0.06,-0.761 0.16,-1.121 -1.24,-1.117 -2.32,-2.89 -2.28,-5.48 0.02,-1.328 -0.32,-2.297 -1.04,-2.949 -0.58,-0.508 -1.29,-0.778 -2,-0.95 -5.33,7.45 -11.88,12.012 -11.88,12.012 l -5.13,-5.512 c 3.88,-3.519 7.84,-7.941 11.69,-13.461 2.66,-3.808 5.4,-8.718 7.68,-13.629 l 6.93,3.29 c 0,0 -3.16,7.82 -7.61,14.832 0.77,0.269 1.55,0.687 2.24,1.296 1.35,1.223 2.02,2.954 1.98,5.122 -0.02,1.41 0.45,2.359 1,2.992 0.77,-0.59 1.74,-0.973 2.79,-0.973 2.51,0 4.53,2.031 4.53,4.531 0,2.5 -2.02,4.52 -4.53,4.52" /><path
         id="path244"
         style="fill:#e6ce62;fill-opacity:1;fill-rule:nonzero;stroke:none"
         d="m 2560.97,216.102 c -9.53,-4.641 -25.21,-10.782 -45.86,-13.661 -8.11,-1.121 -15.96,-1.543 -23.19,-1.543 -9.41,0 -17.72,0.704 -24.1,1.512 -7.28,0.922 -12.97,2.039 -16.45,2.82 0.83,-2.64 1.85,-5.269 3.07,-7.832 0.02,-0.066 0.05,-0.136 0.08,-0.179 0.15,-0.297 0.29,-0.61 0.45,-0.91 0.14,-0.297 0.29,-0.59 0.43,-0.86 0.05,-0.078 0.08,-0.16 0.12,-0.219 2.05,-3.859 4.51,-7.41 7.31,-10.48 9.74,-10.648 19.66,-12.34 19.76,-12.352 l 0.15,-0.019 0.15,-0.047 c 0.09,-0.043 8.89,-2.883 22.26,-2.883 13.16,0 26.07,2.66 38.38,7.903 9.11,4.66 17.74,11.738 22.01,18.058 3.3,4.879 5.69,10.102 7.1,15.512 0.75,2.879 1.35,7.488 1,12.348 -2.68,-1.809 -6.93,-4.379 -12.67,-7.168" /><path
         id="path246"
         style="fill:#e6ce62;fill-opacity:1;fill-rule:nonzero;stroke:none"
         d="m 2485.69,260.949 c 10.53,0 19.06,-8.539 19.06,-19.058 0,-10.52 -8.53,-19.039 -19.06,-19.039 -10.51,0 -19.04,8.519 -19.04,19.039 0,10.519 8.53,19.058 19.04,19.058 z m 55.75,-0.469 c 6.5,0 11.79,-5.289 11.79,-11.789 0,-6.511 -5.29,-11.8 -11.79,-11.8 -6.5,0 -11.78,5.289 -11.78,11.8 0,6.5 5.28,11.789 11.78,11.789 z m -82.99,-4.519 c -0.28,-0.402 -4.41,-6.25 -7.68,-15.231 -2.45,-6.742 -2.34,-16.531 -2.34,-16.64 v -0.02 c 0,-2.3 0.13,-4.578 0.39,-6.84 0,-0.05 0,-0.089 0.01,-0.121 0.03,-0.289 0.08,-0.57 0.1,-0.859 0.21,-1.559 0.47,-3.148 0.8,-4.75 4.74,-1.199 33,-7.789 64.59,-3.391 19.8,2.75 34.83,8.602 43.96,13.032 7.58,3.679 12.46,7.007 14.34,8.379 -1.88,6.949 -7.05,17.859 -11.79,24.66 -13.56,19.379 -28.19,24.359 -35.7,25.59 -2.86,0.468 -5.16,0.742 -8.41,0.742 -3.02,0 -6.77,-0.242 -11.79,-0.77 -5.02,-0.523 -10.63,-1.844 -17.12,-4.031 -9.12,-3.051 -17.37,-7.84 -23.86,-13.852 l -0.22,-0.211 c -0.96,-0.878 -2.97,-2.746 -5.28,-5.687" /></g></g></svg>